<svg width="42" height="42" viewBox="0 0 42 42" fill="none" xmlns="http://www.w3.org/2000/svg">
<g clip-path="url(#clip0_1584_28935)">
<path d="M19.9092 8.42481C20.8547 8.42482 21.7892 8.57141 22.7119 8.79297L22.3008 9.90723C22.0502 10.5866 22.3891 11.3477 23.0713 11.6104L23.0732 11.6113L23.5908 11.8096C24.2788 12.0721 25.0501 11.7257 25.3105 11.0361V11.0352L25.7393 9.89551C27.6492 10.9203 29.2368 12.4442 30.3662 14.3047L29.293 14.7881H29.292C28.6189 15.0914 28.3231 15.8842 28.6279 16.5537V16.5547L28.8594 17.0615V17.0625C29.1618 17.725 29.9426 18.0228 30.6104 17.7266H30.6113L31.7158 17.2344C32.0616 18.358 32.2587 19.5458 32.2588 20.7744C32.2588 21.239 32.2211 21.7015 32.1582 22.1621C31.5291 21.9901 30.8668 21.8975 30.1836 21.8975C26.0408 21.898 22.6823 25.2578 22.6816 29.4004C22.6817 29.9308 22.7407 30.4468 22.8447 30.9424C22.8457 31.1219 22.8808 31.3036 22.957 31.4756L22.958 31.4766L23.0098 31.5938C23.115 31.9385 23.2439 32.2732 23.3955 32.5957C22.2877 32.9313 21.1184 33.123 19.9092 33.123L19.4805 33.1133C18.6802 33.0773 17.8886 32.9428 17.1055 32.7549L17.5186 31.6416V31.6406C17.7696 30.9591 17.4281 30.1977 16.7461 29.9365L16.2295 29.7393L16.2285 29.7383L16.0977 29.6963C15.444 29.521 14.7511 29.8687 14.5078 30.5137V30.5147L14.0791 31.6523C12.1692 30.6274 10.5813 29.1037 9.45215 27.2432L10.5264 26.7617H10.5273C11.2017 26.4581 11.497 25.6625 11.1914 24.9932L11.1904 24.9912L10.958 24.4834L10.8955 24.3643C10.5586 23.7904 9.83504 23.5423 9.20703 23.8213V23.8223L8.10254 24.3135C7.75686 23.1902 7.56059 22.0027 7.56055 20.7744C7.56062 19.8283 7.70645 18.8932 7.92774 17.9707L9.04199 18.3828C9.72082 18.6337 10.4833 18.2964 10.7461 17.6123L10.7471 17.6104L10.9453 17.0928V17.0918C11.2062 16.4054 10.862 15.6349 10.1729 15.374L10.1709 15.373L9.03125 14.9443C10.0562 13.0342 11.58 11.4456 13.4404 10.3164L13.9238 11.3916C14.2079 12.0225 14.9225 12.3237 15.5635 12.1064L15.6904 12.0557L16.1982 11.8242L16.1992 11.8232C16.8602 11.5205 17.1582 10.7408 16.8623 10.0732V10.0723L16.3701 8.9668C17.3292 8.67161 18.3349 8.48551 19.373 8.4375L19.9092 8.42481ZM34.2012 30.5693C33.9885 31.1937 33.6327 31.7566 33.125 32.2656C32.6167 32.7753 32.0541 33.132 31.4287 33.3438C31.4835 33.181 31.5136 33.01 31.5137 32.834V30.6523L33.6943 30.6514C33.8695 30.6518 34.0395 30.6233 34.2012 30.5693ZM25.6973 30.5674C25.8591 30.6223 26.0301 30.6522 26.207 30.6523H28.3906V32.834C28.3907 33.0084 28.4194 33.1786 28.4736 33.3408C27.8477 33.1286 27.2853 32.7721 26.7773 32.2647C26.2684 31.7557 25.9096 31.193 25.6973 30.5674ZM31.4287 24.834C32.0544 25.0461 32.6172 25.4053 33.127 25.915C33.6365 26.4247 33.9942 26.9872 34.2061 27.6123C34.0437 27.5573 33.8718 27.5283 33.6943 27.5283H31.5137V25.3467C31.514 25.1692 31.4841 24.9971 31.4287 24.834ZM28.4746 24.835C28.4194 24.9985 28.3907 25.1705 28.3906 25.3467V27.5283H26.207C26.0296 27.5285 25.8581 27.5572 25.6963 27.6123C25.9084 26.9865 26.2671 26.4241 26.7764 25.915C27.2857 25.4061 27.8488 25.0473 28.4746 24.835ZM19.9131 15.4307C16.9624 15.4307 14.5704 17.8228 14.5703 20.7734L14.5772 21.0488C14.7205 23.8715 17.0548 26.1162 19.9131 26.1162C22.8635 26.1159 25.2559 23.724 25.2559 20.7734L25.249 20.498C25.1056 17.6755 22.7711 15.4309 19.9131 15.4307Z" stroke="white" stroke-width="1.875"/>
</g>
<defs>
<clipPath id="clip0_1584_28935">
<rect width="30" height="30" fill="white" transform="translate(6 6)"/>
</clipPath>
</defs>
</svg>
