<svg width="32" height="28" viewBox="0 0 32 28" fill="none" xmlns="http://www.w3.org/2000/svg">
<rect width="32" height="28" rx="14" fill="#002130"/>
<path d="M16.8726 13.4694L14.2789 16.0632M22.309 7.44425C22.3911 7.41594 22.4794 7.41128 22.564 7.4308C22.6485 7.45033 22.7259 7.49325 22.7872 7.55466C22.8485 7.61607 22.8914 7.6935 22.9108 7.77809C22.9302 7.86268 22.9254 7.95102 22.8969 8.03302L17.7752 22.6702C17.7446 22.7577 17.6883 22.834 17.6138 22.8891C17.5393 22.9443 17.4499 22.9758 17.3573 22.9795C17.2646 22.9832 17.173 22.959 17.0943 22.91C17.0156 22.8611 16.9534 22.7895 16.9158 22.7048L14.1328 16.4436C14.086 16.3395 14.0026 16.2561 13.8985 16.2093L7.63725 13.4254C7.55278 13.3876 7.48156 13.3255 7.43278 13.2468C7.38401 13.1682 7.35993 13.0768 7.36366 12.9844C7.36738 12.8919 7.39874 12.8027 7.45367 12.7283C7.50861 12.6539 7.5846 12.5976 7.67183 12.5668L22.309 7.44425Z" stroke="#0E73C8" stroke-width="1.29686" stroke-linecap="round" stroke-linejoin="round"/>
</svg>
