<svg width="24" height="24" viewBox="0 0 24 24" fill="none" xmlns="http://www.w3.org/2000/svg">
<path d="M13.1089 20.7631L13.6931 19.4198C14.7202 17.0434 16.6012 15.1381 18.965 14.0797L20.7674 13.2752C20.986 13.1746 21.1713 13.0136 21.3011 12.811C21.431 12.6085 21.5 12.373 21.5 12.1324C21.5 11.8919 21.431 11.6563 21.3011 11.4538C21.1713 11.2513 20.986 11.0902 20.7674 10.9896L19.0647 10.2325C16.6415 9.14408 14.7283 7.16828 13.7192 4.71215L13.116 3.26204C13.0278 3.03741 12.8739 2.84456 12.6744 2.70863C12.4749 2.5727 12.239 2.5 11.9975 2.5C11.7561 2.5 11.5202 2.5727 11.3207 2.70863C11.1212 2.84456 10.9673 3.03741 10.879 3.26204L10.2782 4.70978C9.27018 7.16637 7.35782 9.14302 4.9351 10.2325L3.23005 10.992C3.01205 11.0928 2.82747 11.2539 2.69811 11.4562C2.56874 11.6585 2.5 11.8935 2.5 12.1336C2.5 12.3737 2.56874 12.6087 2.69811 12.811C2.82747 13.0133 3.01205 13.1744 3.23005 13.2752L5.03484 14.0774C7.39813 15.1367 9.2783 17.0429 10.3044 19.4198L10.8885 20.7631C11.316 21.7456 12.6791 21.7456 13.1089 20.7631Z" fill="url(#paint0_linear_727_23136)"/>
<defs>
<linearGradient id="paint0_linear_727_23136" x1="9.54981" y1="3.75191" x2="17.3079" y2="19.6005" gradientUnits="userSpaceOnUse">
<stop stop-color="#C4ECFE"/>
<stop offset="0.380938" stop-color="#CDFEF9"/>
<stop offset="1" stop-color="white"/>
</linearGradient>
</defs>
</svg>
