<svg width="54" height="54" viewBox="0 0 54 54" fill="none" xmlns="http://www.w3.org/2000/svg">
<circle cx="27" cy="27" r="27" fill="url(#paint0_linear_602_20659)"/>
<path d="M37.8027 20.7097L38.1347 19.946C38.7183 18.5948 39.7872 17.5115 41.1303 16.9098L42.1545 16.4523C42.2788 16.3952 42.3841 16.3036 42.4578 16.1884C42.5316 16.0733 42.5708 15.9394 42.5708 15.8026C42.5708 15.6658 42.5316 15.5319 42.4578 15.4168C42.3841 15.3016 42.2788 15.21 42.1545 15.1529L41.187 14.7224C39.8101 14.1035 38.7229 12.9802 38.1495 11.5837L37.8068 10.7592C37.7566 10.6315 37.6692 10.5218 37.5558 10.4445C37.4424 10.3673 37.3084 10.3259 37.1712 10.3259C37.034 10.3259 36.9 10.3673 36.7866 10.4445C36.6732 10.5218 36.5858 10.6315 36.5356 10.7592L36.1942 11.5823C35.6214 12.9791 34.5347 14.1029 33.158 14.7224L32.1892 15.1542C32.0653 15.2115 31.9604 15.3031 31.8869 15.4181C31.8134 15.5331 31.7743 15.6668 31.7743 15.8033C31.7743 15.9398 31.8134 16.0734 31.8869 16.1884C31.9604 16.3034 32.0653 16.395 32.1892 16.4523L33.2147 16.9084C34.5576 17.5108 35.626 18.5946 36.2091 19.946L36.541 20.7097C36.7839 21.2684 37.5585 21.2684 37.8027 20.7097ZM29.597 17.5319C29.9667 18.1166 30.4723 18.5489 31.1137 18.8286L31.8761 19.1619C32.3889 19.3859 32.8045 19.6999 33.123 20.1038V26.5203C33.123 28.3097 32.4121 30.0258 31.1468 31.2911C29.8815 32.5564 28.1654 33.2673 26.3759 33.2673C24.5865 33.2673 22.8704 32.5564 21.6051 31.2911C20.3398 30.0258 19.6289 28.3097 19.6289 26.5203V18.4238C19.6289 17.1714 19.9775 15.9437 20.6357 14.8781C21.2939 13.8126 22.2356 12.9513 23.3556 12.3906C24.4755 11.8299 25.7294 11.5921 26.9768 11.7036C28.2243 11.8151 29.4161 12.2717 30.4188 13.0222C30.0949 13.265 29.8205 13.5637 29.5956 13.9182C29.2519 14.4578 29.0715 15.0852 29.0761 15.725C29.0761 16.3781 29.2488 16.9804 29.597 17.5319Z" fill="white"/>
<path d="M15.2576 28.5276C15.6994 28.5276 16.0527 28.8872 16.1062 29.3258C16.6012 33.3815 20.8228 36.9143 26.4951 36.9143C32.1671 36.9142 36.3889 33.3814 36.8839 29.3258C36.9374 28.8872 37.2907 28.5276 37.7326 28.5276H39.1326C39.5744 28.5276 39.936 28.8872 39.9008 29.3277C39.4658 34.7854 34.6099 38.9119 28.7174 39.7531C28.3092 39.8113 27.9951 40.1539 27.9951 40.5662V42.8741C27.9951 43.3159 27.6369 43.6741 27.1951 43.6741H25.7951C25.3532 43.6741 24.9951 43.3159 24.9951 42.8741V40.5662C24.9951 40.1539 24.6809 39.8113 24.2727 39.7531C18.3801 38.9121 13.5243 34.7855 13.0893 29.3277C13.0542 28.8872 13.4157 28.5276 13.8576 28.5276H15.2576Z" fill="white"/>
<defs>
<linearGradient id="paint0_linear_602_20659" x1="27" y1="0" x2="27" y2="54" gradientUnits="userSpaceOnUse">
<stop offset="0.0576923" stop-color="#1B8CEB"/>
<stop offset="0.370192" stop-color="#0E73C8"/>
<stop offset="1" stop-color="#005196"/>
</linearGradient>
</defs>
</svg>
