<svg width="120" height="120" viewBox="0 0 120 120" fill="none" xmlns="http://www.w3.org/2000/svg">
<circle cx="60" cy="60" r="60" fill="#EAF7FF"/>
<rect x="11.8984" y="11.8994" width="96.201" height="96.201" rx="48.1005" fill="#0E73C8"/>
<path d="M57.9961 77.9312V65.0173L49.8399 73.1735C49.4565 73.5569 48.9685 73.7486 48.376 73.7486C47.7834 73.7486 47.2954 73.5569 46.912 73.1735C46.5286 72.79 46.3369 72.3021 46.3369 71.7095C46.3369 71.117 46.5286 70.629 46.912 70.2456L57.1595 59.9981L46.912 49.7506C46.5286 49.3672 46.3369 48.8792 46.3369 48.2867C46.3369 47.6941 46.5286 47.2062 46.912 46.8228C47.2954 46.4394 47.7834 46.2476 48.376 46.2476C48.9685 46.2476 49.4565 46.4394 49.8399 46.8228L57.9961 54.9789V42.065C57.9961 41.4376 58.2052 40.9238 58.6235 40.5237C59.0417 40.1235 59.5297 39.9228 60.0874 39.9214C60.3662 39.9214 60.6276 39.9737 60.8716 40.0782C61.1156 40.1828 61.3422 40.3397 61.5513 40.5488L70.544 49.5415C70.7531 49.7506 70.9016 49.9772 70.9895 50.2212C71.0773 50.4652 71.1205 50.7266 71.1191 51.0054C71.1177 51.2843 71.0745 51.5457 70.9895 51.7897C70.9044 52.0336 70.7559 52.2602 70.544 52.4693L63.0152 59.9981L70.544 67.5269C70.7531 67.736 70.9016 67.9626 70.9895 68.2066C71.0773 68.4505 71.1205 68.712 71.1191 68.9908C71.1177 69.2697 71.0745 69.5311 70.9895 69.7751C70.9044 70.019 70.7559 70.2456 70.544 70.4547L61.5513 79.4474C61.3422 79.6566 61.1156 79.8134 60.8716 79.918C60.6276 80.0225 60.3662 80.0748 60.0874 80.0748C59.5297 80.0748 59.0417 79.8741 58.6235 79.4725C58.2052 79.071 57.9961 78.5572 57.9961 77.9312ZM62.1787 54.9789L66.1522 51.0054L62.1787 47.1365V54.9789ZM62.1787 72.8598L66.1522 68.9908L62.1787 65.0173V72.8598Z" fill="#F7FBFF"/>
</svg>
