<svg width="58" height="58" viewBox="0 0 58 58" fill="none" xmlns="http://www.w3.org/2000/svg">
<circle cx="28.6899" cy="28.6899" r="28.6899" fill="#EAF7FF"/>
<rect x="5.5" y="5.68994" width="46" height="46" rx="23" fill="#D2E6EF"/>
<path d="M27.5413 37.2648V31.0898L23.6413 34.9898C23.458 35.1732 23.2246 35.2648 22.9413 35.2648C22.658 35.2648 22.4246 35.1732 22.2413 34.9898C22.058 34.8065 21.9663 34.5732 21.9663 34.2898C21.9663 34.0065 22.058 33.7732 22.2413 33.5898L27.1413 28.6898L22.2413 23.7898C22.058 23.6065 21.9663 23.3732 21.9663 23.0898C21.9663 22.8065 22.058 22.5732 22.2413 22.3898C22.4246 22.2065 22.658 22.1148 22.9413 22.1148C23.2246 22.1148 23.458 22.2065 23.6413 22.3898L27.5413 26.2898V20.1148C27.5413 19.8148 27.6413 19.5692 27.8413 19.3778C28.0413 19.1865 28.2746 19.0905 28.5413 19.0898C28.6746 19.0898 28.7996 19.1148 28.9163 19.1648C29.033 19.2148 29.1413 19.2898 29.2413 19.3898L33.5413 23.6898C33.6413 23.7898 33.7123 23.8982 33.7543 24.0148C33.7963 24.1315 33.817 24.2565 33.8163 24.3898C33.8156 24.5232 33.795 24.6482 33.7543 24.7648C33.7136 24.8815 33.6426 24.9898 33.5413 25.0898L29.9413 28.6898L33.5413 32.2898C33.6413 32.3898 33.7123 32.4982 33.7543 32.6148C33.7963 32.7315 33.817 32.8565 33.8163 32.9898C33.8156 33.1232 33.795 33.2482 33.7543 33.3648C33.7136 33.4815 33.6426 33.5898 33.5413 33.6898L29.2413 37.9898C29.1413 38.0898 29.033 38.1648 28.9163 38.2148C28.7996 38.2648 28.6746 38.2898 28.5413 38.2898C28.2746 38.2898 28.0413 38.1938 27.8413 38.0018C27.6413 37.8098 27.5413 37.5642 27.5413 37.2648ZM29.5413 26.2898L31.4413 24.3898L29.5413 22.5398V26.2898ZM29.5413 34.8398L31.4413 32.9898L29.5413 31.0898V34.8398Z" fill="#005EAD"/>
</svg>
