<svg width="32" height="32" viewBox="0 0 32 32" fill="none" xmlns="http://www.w3.org/2000/svg">
<path d="M19.1449 17.0481V8.66299C19.1449 7.82903 18.8136 7.02923 18.2239 6.43954C17.6342 5.84984 16.8344 5.51855 16.0005 5.51855C15.1665 5.51855 14.3667 5.84984 13.777 6.43954C13.1873 7.02923 12.8561 7.82903 12.8561 8.66299V17.0481C11.9761 17.7081 11.3261 18.6282 10.9981 19.6781C10.6702 20.728 10.6809 21.8545 11.0287 22.898C11.3765 23.9415 12.0439 24.8491 12.9362 25.4922C13.8285 26.1354 14.9006 26.4814 16.0005 26.4814C17.1004 26.4814 18.1725 26.1354 19.0648 25.4922C19.9571 24.8491 20.6244 23.9415 20.9723 22.898C21.3201 21.8545 21.3308 20.728 21.0028 19.6781C20.6749 18.6282 20.0249 17.7081 19.1449 17.0481ZM16.0005 7.61484C16.2785 7.61484 16.5451 7.72527 16.7416 7.92184C16.9382 8.1184 17.0486 8.385 17.0486 8.66299V11.8074H14.9523V8.66299C14.9523 8.385 15.0628 8.1184 15.2593 7.92184C15.4559 7.72527 15.7225 7.61484 16.0005 7.61484Z" fill="#663A00"/>
</svg>
