<svg width="42" height="42" viewBox="0 0 42 42" fill="none" xmlns="http://www.w3.org/2000/svg">
<path d="M9.62305 29.7503C9.62305 31.5193 10.7999 32.9587 12.248 32.9587C12.5691 32.9524 12.8855 32.8809 13.1781 32.7485C13.4707 32.6162 13.7333 32.4257 13.9499 32.1887C14.1121 32.0287 14.3303 31.9383 14.5581 31.9367C14.7859 31.9351 15.0053 32.0223 15.1698 32.18C15.3342 32.3376 15.4307 32.5531 15.4388 32.7808C15.4468 33.0084 15.3658 33.2302 15.2128 33.3991C14.8339 33.8078 14.3754 34.1347 13.8656 34.3599C13.3558 34.5851 12.8054 34.7038 12.248 34.7087C9.83596 34.7087 7.87305 32.4847 7.87305 29.7503C7.87305 27.016 9.83596 24.792 12.248 24.792C12.8056 24.7972 13.3562 24.9164 13.866 25.1421C14.3758 25.3678 14.8341 25.6953 15.2128 26.1045C15.3658 26.2733 15.4468 26.4951 15.4388 26.7228C15.4307 26.9504 15.3342 27.166 15.1698 27.3236C15.0053 27.4812 14.7859 27.5685 14.5581 27.5669C14.3303 27.5653 14.1121 27.4749 13.9499 27.3149C13.7336 27.0773 13.4711 26.8862 13.1785 26.7533C12.8859 26.6205 12.5693 26.5485 12.248 26.542C10.7999 26.542 9.62305 27.9799 9.62305 29.7503ZM21.4428 28.763C19.8591 28.3066 19.4872 28.0791 19.547 27.6095C19.5554 27.462 19.5976 27.3185 19.6705 27.19C19.7433 27.0615 19.8448 26.9516 19.967 26.8687C20.7837 26.316 22.5424 26.6032 23.0951 26.7462C23.3174 26.7994 23.5517 26.7635 23.7479 26.6461C23.9441 26.5288 24.0865 26.3394 24.1448 26.1184C24.2031 25.8974 24.1726 25.6623 24.0599 25.4635C23.9471 25.2647 23.761 25.1179 23.5414 25.0545C23.2497 24.9772 20.6101 24.3253 18.9899 25.4162C18.6609 25.639 18.3849 25.9313 18.1813 26.2725C17.9777 26.6137 17.8515 26.9954 17.8116 27.3907C17.5491 29.4601 19.5995 30.0522 20.9572 30.4445C22.7247 30.9549 23.1126 31.2218 23.028 31.8678C23.0206 32.0227 22.9771 32.1737 22.9012 32.3088C22.8253 32.444 22.7189 32.5596 22.5905 32.6466C21.7724 33.1905 20.0414 32.8857 19.5003 32.737C19.2836 32.6922 19.058 32.7312 18.8688 32.8461C18.6797 32.961 18.5412 33.1433 18.4811 33.3563C18.421 33.5693 18.4438 33.7971 18.545 33.9939C18.6462 34.1908 18.8182 34.3419 19.0264 34.417C19.725 34.6032 20.4442 34.7012 21.1672 34.7087C21.9678 34.7087 22.8501 34.5701 23.553 34.1049C23.8911 33.8794 24.175 33.5819 24.3846 33.2337C24.5941 32.8855 24.724 32.4952 24.7649 32.091C25.058 29.8072 22.8822 29.1787 21.4428 28.7616V28.763ZM33.547 24.843C33.4388 24.8043 33.324 24.7873 33.2093 24.793C33.0945 24.7987 32.982 24.8269 32.8781 24.8761C32.7742 24.9252 32.6811 24.9943 32.6039 25.0795C32.5268 25.1647 32.4671 25.2642 32.4285 25.3724L30.3314 31.2305L28.2387 25.3753C28.2044 25.2621 28.1475 25.1569 28.0715 25.0663C27.9954 24.9757 27.9018 24.9014 27.7962 24.848C27.6906 24.7945 27.5753 24.7631 27.4572 24.7555C27.3391 24.7479 27.2207 24.7644 27.1092 24.8039C26.9976 24.8434 26.8953 24.9051 26.8082 24.9852C26.7212 25.0654 26.6514 25.1624 26.6029 25.2704C26.5545 25.3783 26.5284 25.495 26.5263 25.6133C26.5242 25.7316 26.5461 25.8491 26.5908 25.9587L29.5074 34.1253C29.5681 34.2952 29.6799 34.4422 29.8274 34.5461C29.9749 34.6501 30.1509 34.7058 30.3314 34.7058C30.5118 34.7058 30.6878 34.6501 30.8353 34.5461C30.9828 34.4422 31.0946 34.2952 31.1553 34.1253L34.072 25.9587C34.1495 25.7399 34.137 25.4994 34.0372 25.2899C33.9374 25.0804 33.7584 24.9191 33.5397 24.8416L33.547 24.843ZM34.123 16.3337V19.8337C34.123 20.0657 34.0309 20.2883 33.8668 20.4524C33.7027 20.6165 33.4801 20.7087 33.248 20.7087C33.016 20.7087 32.7934 20.6165 32.6293 20.4524C32.4652 20.2883 32.373 20.0657 32.373 19.8337V17.2087H25.0814C24.8493 17.2087 24.6268 17.1165 24.4627 16.9524C24.2986 16.7883 24.2064 16.5657 24.2064 16.3337V9.04199H11.0814C11.004 9.04199 10.9298 9.07272 10.8751 9.12742C10.8204 9.18212 10.7897 9.2563 10.7897 9.33366V19.8337C10.7897 20.0657 10.6975 20.2883 10.5334 20.4524C10.3693 20.6165 10.1468 20.7087 9.91471 20.7087C9.68265 20.7087 9.46009 20.6165 9.29599 20.4524C9.1319 20.2883 9.03971 20.0657 9.03971 19.8337V9.33366C9.03971 8.79218 9.25482 8.27287 9.6377 7.88998C10.0206 7.5071 10.5399 7.29199 11.0814 7.29199H25.0814C25.3134 7.2922 25.5358 7.38452 25.6997 7.54866L33.8664 15.7153C34.0305 15.8793 34.1228 16.1017 34.123 16.3337ZM31.1349 15.4587L25.9564 10.2787V15.4587H31.1349Z" fill="white"/>
</svg>
