<svg width="32" height="28" viewBox="0 0 32 28" fill="none" xmlns="http://www.w3.org/2000/svg">
<rect width="32" height="28" rx="14" fill="#FF4242"/>
<path d="M9.88672 18.543H21.8086V17.0527H9.88672V18.543ZM12.8672 14.0723H14.3574V11.8369C14.3574 11.4271 14.5035 11.0764 14.7956 10.7848C15.0876 10.4932 15.4383 10.3472 15.8477 10.3467V8.85645C15.028 8.85645 14.3264 9.14828 13.7427 9.73196C13.159 10.3156 12.8672 11.0173 12.8672 11.8369V14.0723ZM12.1221 15.5625H19.5732V11.8369C19.5732 10.8062 19.2099 9.92768 18.4831 9.20143C17.7564 8.47519 16.8779 8.11183 15.8477 8.11133C14.8174 8.11083 13.9389 8.4742 13.2122 9.20143C12.4854 9.92867 12.1221 10.8072 12.1221 11.8369V15.5625ZM9.88672 20.0332C9.4769 20.0332 9.1262 19.8874 8.83461 19.5958C8.54302 19.3042 8.39698 18.9533 8.39648 18.543V17.0527C8.39648 16.6429 8.54253 16.2922 8.83461 16.0006C9.1267 15.709 9.4774 15.563 9.88672 15.5625H10.6318V11.8369C10.6318 10.3839 11.138 9.15151 12.1504 8.13964C13.1628 7.12777 14.3952 6.62159 15.8477 6.62109C17.3001 6.6206 18.5328 7.12678 19.5457 8.13964C20.5585 9.15251 21.0645 10.3849 21.0635 11.8369V15.5625H21.8086C22.2184 15.5625 22.5694 15.7085 22.8614 16.0006C23.1535 16.2927 23.2993 16.6434 23.2988 17.0527V18.543C23.2988 18.9528 23.153 19.3037 22.8614 19.5958C22.5699 19.8879 22.2189 20.0337 21.8086 20.0332H9.88672Z" fill="#FFFAFA"/>
</svg>
