<svg width="32" height="24" viewBox="0 0 32 24" fill="none" xmlns="http://www.w3.org/2000/svg">
<rect y="1" width="32" height="22" rx="11" fill="#FF4242"/>
<path d="M9.88672 16.543H21.8086V15.0527H9.88672V16.543ZM12.8672 12.0723H14.3574V9.83691C14.3574 9.4271 14.5035 9.0764 14.7956 8.78481C15.0876 8.49322 15.4383 8.34718 15.8477 8.34668V6.85645C15.028 6.85645 14.3264 7.14828 13.7427 7.73196C13.159 8.31563 12.8672 9.01729 12.8672 9.83691V12.0723ZM12.1221 13.5625H19.5732V9.83691C19.5732 8.80617 19.2099 7.92768 18.4831 7.20143C17.7564 6.47519 16.8779 6.11183 15.8477 6.11133C14.8174 6.11083 13.9389 6.4742 13.2122 7.20143C12.4854 7.92867 12.1221 8.80716 12.1221 9.83691V13.5625ZM9.88672 18.0332C9.4769 18.0332 9.1262 17.8874 8.83461 17.5958C8.54302 17.3042 8.39698 16.9533 8.39648 16.543V15.0527C8.39648 14.6429 8.54253 14.2922 8.83461 14.0006C9.1267 13.709 9.4774 13.563 9.88672 13.5625H10.6318V9.83691C10.6318 8.38394 11.138 7.15151 12.1504 6.13964C13.1628 5.12777 14.3952 4.62159 15.8477 4.62109C17.3001 4.6206 18.5328 5.12678 19.5457 6.13964C20.5585 7.15251 21.0645 8.38493 21.0635 9.83691V13.5625H21.8086C22.2184 13.5625 22.5694 13.7085 22.8614 14.0006C23.1535 14.2927 23.2993 14.6434 23.2988 15.0527V16.543C23.2988 16.9528 23.153 17.3037 22.8614 17.5958C22.5699 17.8879 22.2189 18.0337 21.8086 18.0332H9.88672Z" fill="#FFFAFA"/>
</svg>
