<svg width="32" height="32" viewBox="0 0 32 32" fill="none" xmlns="http://www.w3.org/2000/svg">
<path d="M13.8059 12.5031C13.2236 11.9208 12.8965 11.1311 12.8965 10.3077C12.8965 9.48422 13.2236 8.69451 13.8059 8.11225C14.3881 7.52999 15.1778 7.20288 16.0013 7.20288C16.8247 7.20288 17.6144 7.52999 18.1967 8.11225C18.7789 8.69451 19.106 9.48422 19.106 10.3077C19.106 11.1311 18.7789 11.9208 18.1967 12.5031C17.6144 13.0853 16.8247 13.4124 16.0013 13.4124C15.1778 13.4124 14.3881 13.0853 13.8059 12.5031Z" stroke="#730303" stroke-width="2.09206" stroke-linecap="round" stroke-linejoin="round"/>
<path d="M21.3458 13.4125H10.655C10.4127 13.4124 10.178 13.4975 9.99186 13.6527C9.80576 13.808 9.68006 14.0237 9.63667 14.2622L7.9425 23.5765C7.91536 23.7256 7.92132 23.879 7.95997 24.0256C7.99862 24.1722 8.06901 24.3085 8.16615 24.4249C8.2633 24.5413 8.38483 24.6349 8.52216 24.6992C8.65949 24.7634 8.80925 24.7967 8.96086 24.7967H23.04C23.1916 24.7967 23.3414 24.7634 23.4787 24.6992C23.616 24.6349 23.7376 24.5413 23.8347 24.4249C23.9319 24.3085 24.0022 24.1722 24.0409 24.0256C24.0795 23.879 24.0855 23.7256 24.0584 23.5765L22.3642 14.2622C22.3208 14.0237 22.1951 13.808 22.009 13.6527C21.8229 13.4975 21.5882 13.4124 21.3458 13.4125Z" fill="#730303"/>
</svg>
