<svg width="40" height="40" viewBox="0 0 40 40" fill="none" xmlns="http://www.w3.org/2000/svg">
<path d="M20.0001 3.26495C12.5528 3.26495 6.4933 9.36036 6.4933 16.8433C6.44434 27.7893 19.4869 36.8653 20.0001 37.2321C20.0001 37.2321 33.5559 27.7893 33.5069 16.8518C33.5069 9.36036 27.4474 3.26495 20.0001 3.26495Z" fill="#FF4242"/>
<circle cx="19.9997" cy="16.9352" r="8.78092" fill="white"/>
<circle cx="19.9993" cy="16.9363" r="1.46509" fill="#730303"/>
<path d="M25.8055 16.942C25.8055 16.1396 25.6428 15.3752 25.3484 14.6801C25.2871 14.5353 25.2201 14.3936 25.1477 14.2551M14.1943 16.942C14.1943 13.7356 16.7936 11.1364 19.9999 11.1364C20.681 11.1364 21.3347 11.2536 21.9419 11.4691" stroke="#730303" stroke-width="1.55672" stroke-linecap="round"/>
<path d="M23.623 11.9192C23.8765 11.639 24.3098 11.6168 24.5898 11.8704C24.8696 12.1237 24.8909 12.5562 24.6377 12.8362L21.708 16.0754C21.4967 15.6562 21.1375 15.3253 20.6973 15.1526L23.623 11.9192Z" fill="#730303"/>
</svg>
