<svg width="24" height="24" viewBox="0 0 24 24" fill="none" xmlns="http://www.w3.org/2000/svg">
<rect width="24" height="24" rx="12" fill="#FF4242"/>
<path d="M6.48351 16.6933H17.2109V15.3523H6.48351V16.6933ZM9.16536 12.6705H10.5063V10.6591C10.5063 10.2903 10.6377 9.97475 10.9005 9.71238C11.1633 9.45 11.4789 9.31859 11.8472 9.31814V7.97721C11.1097 7.97721 10.4784 8.23981 9.95316 8.76501C9.42796 9.29021 9.16536 9.92156 9.16536 10.6591V12.6705ZM8.4949 14.0114H15.1995V10.6591C15.1995 9.7316 14.8726 8.94112 14.2187 8.28764C13.5647 7.63416 12.7743 7.3072 11.8472 7.30675C10.9202 7.3063 10.1297 7.63327 9.47579 8.28764C8.82186 8.94201 8.4949 9.73249 8.4949 10.6591V14.0114ZM6.48351 18.0342C6.11475 18.0342 5.79919 17.903 5.53681 17.6406C5.27444 17.3782 5.14303 17.0625 5.14258 16.6933V15.3523C5.14258 14.9836 5.27399 14.668 5.53681 14.4056C5.79963 14.1433 6.1152 14.0118 6.48351 14.0114H7.15397V10.6591C7.15397 9.35167 7.60944 8.24272 8.52038 7.33223C9.43132 6.42174 10.5403 5.96627 11.8472 5.96582C13.1542 5.96537 14.2634 6.42084 15.1747 7.33223C16.0861 8.24361 16.5414 9.35256 16.5405 10.6591V14.0114H17.2109C17.5797 14.0114 17.8955 14.1428 18.1583 14.4056C18.4211 14.6684 18.5523 14.984 18.5519 15.3523V16.6933C18.5519 17.062 18.4207 17.3778 18.1583 17.6406C17.8959 17.9034 17.5801 18.0346 17.2109 18.0342H6.48351Z" fill="white"/>
</svg>
