<svg width="24" height="24" viewBox="0 0 24 24" fill="none" xmlns="http://www.w3.org/2000/svg">
<rect width="24" height="24" rx="12" fill="#00BF40"/>
<path d="M5.17734 10.381C5.16922 10.2874 5.18063 10.1932 5.21086 10.1043C5.24109 10.0154 5.28948 9.93369 5.35294 9.86445C5.41641 9.79522 5.49358 9.73993 5.57954 9.7021C5.66551 9.66428 5.7584 9.64473 5.85233 9.6447H7.14638C7.32612 9.6447 7.49849 9.7161 7.62558 9.8432C7.75267 9.97029 7.82407 10.1427 7.82407 10.3224V16.7605C7.82407 16.9402 7.75267 17.1126 7.62558 17.2397C7.49849 17.3668 7.32612 17.4382 7.14638 17.4382H6.41244C6.24282 17.4382 6.07936 17.3746 5.95433 17.26C5.8293 17.1454 5.75179 16.9881 5.73712 16.8191L5.17734 10.381ZM9.85715 10.1106C9.85715 9.82734 10.0334 9.57389 10.2892 9.45326C10.8479 9.18963 11.7998 8.66002 12.2291 7.94403C12.7824 7.02102 12.8868 5.35355 12.9037 4.97168C12.9061 4.91814 12.9047 4.8646 12.9119 4.81174C13.0037 4.14997 14.2808 4.92288 14.7704 5.74018C15.0364 6.18339 15.0703 6.76587 15.0425 7.22094C15.0124 7.70752 14.8697 8.1775 14.7298 8.64443L14.4316 9.63962H18.1104C18.2151 9.63962 18.3184 9.66387 18.4122 9.71049C18.5059 9.7571 18.5876 9.82481 18.6508 9.90829C18.714 9.99177 18.757 10.0888 18.7764 10.1917C18.7958 10.2945 18.7911 10.4005 18.7627 10.5013L16.9431 16.9448C16.9029 17.0869 16.8174 17.212 16.6996 17.3011C16.5818 17.3901 16.4382 17.4383 16.2905 17.4382H10.5348C10.3551 17.4382 10.1827 17.3668 10.0556 17.2397C9.92855 17.1126 9.85715 16.9402 9.85715 16.7605V10.1106Z" stroke="white" stroke-width="1.35539" stroke-linecap="round" stroke-linejoin="round"/>
</svg>
