<svg width="40" height="40" viewBox="0 0 40 40" fill="none" xmlns="http://www.w3.org/2000/svg">
<path d="M20.0001 3.26514C12.5528 3.26514 6.4933 9.36055 6.4933 16.8435C6.44434 27.7894 19.4869 36.8655 20.0001 37.2323C20.0001 37.2323 33.5559 27.7894 33.5069 16.852C33.5069 9.36055 27.4474 3.26514 20.0001 3.26514Z" fill="#006E25"/>
<circle cx="19.9997" cy="16.9352" r="8.78092" fill="white"/>
<circle cx="19.9993" cy="16.9363" r="1.46509" fill="#004517"/>
<path d="M25.8055 16.9423C25.8055 16.14 25.6428 15.3756 25.3484 14.6805C25.2871 14.5357 25.2201 14.3939 25.1477 14.2554M14.1943 16.9423C14.1943 13.736 16.7936 11.1367 19.9999 11.1367C20.681 11.1367 21.3347 11.254 21.9419 11.4695" stroke="#004517" stroke-width="1.55672" stroke-linecap="round"/>
<path d="M23.624 11.9193C23.8774 11.6391 24.3098 11.6169 24.5898 11.8705C24.8696 12.1239 24.8909 12.5564 24.6377 12.8363L21.708 16.0756C21.4967 15.6564 21.1375 15.3254 20.6973 15.1527L23.624 11.9193Z" fill="#004517"/>
</svg>
