<svg width="32" height="32" viewBox="0 0 32 32" fill="none" xmlns="http://www.w3.org/2000/svg">
<path d="M24.0441 10.073C24.3964 10.2778 24.6883 10.5721 24.8901 10.9261C25.0919 11.2801 25.1965 11.6812 25.1932 12.0886V19.6214C25.1932 20.458 24.7405 21.2302 24.0096 21.6359L17.1146 26.0533C16.7736 26.2424 16.39 26.3417 15.9999 26.3417C15.6099 26.3417 15.2263 26.2424 14.8853 26.0533L7.99028 21.6359C7.63108 21.4367 7.33183 21.1448 7.12367 20.7908C6.91551 20.4367 6.80603 20.0333 6.80664 19.6225V12.0875C6.80664 11.2509 7.25941 10.4798 7.99028 10.073L14.8853 5.95671C15.2365 5.76045 15.6321 5.65741 16.0344 5.65741C16.4367 5.65741 16.8324 5.76045 17.1836 5.95671L24.0786 10.073H24.0441Z" fill="#004517"/>
<path d="M12.5518 16.002C12.5518 16.9163 12.915 17.7932 13.5615 18.4397C14.208 19.0863 15.0849 19.4495 15.9992 19.4495C16.9136 19.4495 17.7905 19.0863 18.437 18.4397C19.0835 17.7932 19.4467 16.9163 19.4467 16.002C19.4467 15.0877 19.0835 14.2108 18.437 13.5642C17.7905 12.9177 16.9136 12.5545 15.9992 12.5545C15.0849 12.5545 14.208 12.9177 13.5615 13.5642C12.915 14.2108 12.5518 15.0877 12.5518 16.002Z" fill="white"/>
</svg>
