<svg width="32" height="28" viewBox="0 0 32 28" fill="none" xmlns="http://www.w3.org/2000/svg">
<rect width="32" height="28" rx="14" fill="#00BF40"/>
<path d="M9.04356 12.7084C9.03543 12.6148 9.04685 12.5206 9.07707 12.4317C9.1073 12.3428 9.15569 12.2611 9.21915 12.1918C9.28262 12.1226 9.35979 12.0673 9.44575 12.0295C9.53172 11.9917 9.62461 11.9721 9.71854 11.9721H11.0126C11.1923 11.9721 11.3647 12.0435 11.4918 12.1706C11.6189 12.2977 11.6903 12.4701 11.6903 12.6498V19.0879C11.6903 19.2676 11.6189 19.44 11.4918 19.5671C11.3647 19.6942 11.1923 19.7656 11.0126 19.7656H10.2787C10.109 19.7656 9.94557 19.702 9.82054 19.5874C9.69551 19.4728 9.618 19.3155 9.60333 19.1465L9.04356 12.7084ZM13.7234 12.438C13.7234 12.1547 13.8996 11.9013 14.1554 11.7806C14.7141 11.517 15.666 10.9874 16.0953 10.2714C16.6486 9.34841 16.753 7.68095 16.7699 7.29907C16.7723 7.24553 16.7709 7.19199 16.7781 7.13913C16.8699 6.47737 18.147 7.25027 18.6366 8.06757C18.9026 8.51078 18.9365 9.09326 18.9087 9.54833C18.8786 10.0349 18.7359 10.5049 18.596 10.9718L18.2978 11.967H21.9766C22.0813 11.967 22.1846 11.9913 22.2784 12.0379C22.3721 12.0845 22.4538 12.1522 22.517 12.2357C22.5802 12.3192 22.6232 12.4162 22.6426 12.519C22.662 12.6219 22.6573 12.7279 22.6289 12.8287L20.8093 19.2722C20.7691 19.4143 20.6837 19.5394 20.5659 19.6285C20.448 19.7175 20.3044 19.7657 20.1567 19.7656H14.4011C14.2213 19.7656 14.0489 19.6942 13.9219 19.5671C13.7948 19.44 13.7234 19.2676 13.7234 19.0879V12.438Z" stroke="white" stroke-width="1.35539" stroke-linecap="round" stroke-linejoin="round"/>
</svg>
