<svg width="32" height="32" viewBox="0 0 32 32" fill="none" xmlns="http://www.w3.org/2000/svg">
<path d="M19.1439 17.0481V8.66299C19.1439 7.82903 18.8127 7.02923 18.223 6.43954C17.6333 5.84984 16.8335 5.51855 15.9995 5.51855C15.1656 5.51855 14.3658 5.84984 13.7761 6.43954C13.1864 7.02923 12.8551 7.82903 12.8551 8.66299V17.0481C11.9751 17.7081 11.3251 18.6282 10.9972 19.6781C10.6692 20.728 10.6799 21.8545 11.0277 22.898C11.3756 23.9415 12.0429 24.8491 12.9352 25.4922C13.8275 26.1354 14.8996 26.4814 15.9995 26.4814C17.0994 26.4814 18.1715 26.1354 19.0638 25.4922C19.9561 24.8491 20.6235 23.9415 20.9713 22.898C21.3191 21.8545 21.3298 20.728 21.0019 19.6781C20.6739 18.6282 20.0239 17.7081 19.1439 17.0481ZM15.9995 7.61484C16.2775 7.61484 16.5441 7.72527 16.7407 7.92184C16.9372 8.1184 17.0477 8.385 17.0477 8.66299V11.8074H14.9514V8.66299C14.9514 8.385 15.0618 8.1184 15.2584 7.92184C15.4549 7.72527 15.7215 7.61484 15.9995 7.61484Z" fill="#004517"/>
</svg>
