<svg width="32" height="24" viewBox="0 0 32 24" fill="none" xmlns="http://www.w3.org/2000/svg">
<rect y="1" width="32" height="22" rx="11" fill="#00BF40"/>
<path d="M9.04356 10.7087C9.03543 10.6151 9.04685 10.5208 9.07707 10.4319C9.1073 10.343 9.15569 10.2613 9.21915 10.1921C9.28262 10.1229 9.35979 10.0676 9.44575 10.0297C9.53172 9.99191 9.62461 9.97237 9.71854 9.97234H11.0126C11.1923 9.97234 11.3647 10.0437 11.4918 10.1708C11.6189 10.2979 11.6903 10.4703 11.6903 10.65V17.0881C11.6903 17.2678 11.6189 17.4402 11.4918 17.5673C11.3647 17.6944 11.1923 17.7658 11.0126 17.7658H10.2787C10.109 17.7658 9.94557 17.7023 9.82054 17.5877C9.69551 17.4731 9.618 17.3157 9.60333 17.1467L9.04356 10.7087ZM13.7234 10.4383C13.7234 10.155 13.8996 9.90152 14.1554 9.78089C14.7141 9.51727 15.666 8.98765 16.0953 8.27167C16.6486 7.34865 16.753 5.68119 16.7699 5.29931C16.7723 5.24577 16.7709 5.19224 16.7781 5.13938C16.8699 4.47761 18.147 5.25052 18.6366 6.06782C18.9026 6.51103 18.9365 7.0935 18.9087 7.54857C18.8786 8.03516 18.7359 8.50514 18.596 8.97207L18.2978 9.96726H21.9766C22.0813 9.96725 22.1846 9.99151 22.2784 10.0381C22.3721 10.0847 22.4538 10.1524 22.517 10.2359C22.5802 10.3194 22.6232 10.4164 22.6426 10.5193C22.662 10.6222 22.6573 10.7282 22.6289 10.8289L20.8093 17.2724C20.7691 17.4146 20.6837 17.5397 20.5659 17.6287C20.448 17.7178 20.3044 17.7659 20.1567 17.7658H14.4011C14.2213 17.7658 14.0489 17.6944 13.9219 17.5673C13.7948 17.4402 13.7234 17.2678 13.7234 17.0881V10.4383Z" stroke="white" stroke-width="1.35539" stroke-linecap="round" stroke-linejoin="round"/>
</svg>
