<svg width="32" height="32" viewBox="0 0 32 32" fill="none" xmlns="http://www.w3.org/2000/svg">
<path d="M13.8059 12.5033C13.2236 11.9211 12.8965 11.1313 12.8965 10.3079C12.8965 9.48447 13.2236 8.69475 13.8059 8.11249C14.3881 7.53023 15.1778 7.20312 16.0013 7.20312C16.8247 7.20312 17.6144 7.53023 18.1967 8.11249C18.7789 8.69475 19.106 9.48447 19.106 10.3079C19.106 11.1313 18.7789 11.9211 18.1967 12.5033C17.6144 13.0856 16.8247 13.4127 16.0013 13.4127C15.1778 13.4127 14.3881 13.0856 13.8059 12.5033Z" stroke="#004517" stroke-width="2.09206" stroke-linecap="round" stroke-linejoin="round"/>
<path d="M21.3458 13.4126H10.655C10.4127 13.4126 10.178 13.4976 9.99186 13.6529C9.80576 13.8081 9.68006 14.0238 9.63667 14.2623L7.9425 23.5766C7.91536 23.7258 7.92132 23.8791 7.95997 24.0257C7.99862 24.1723 8.06901 24.3086 8.16615 24.425C8.2633 24.5414 8.38483 24.635 8.52216 24.6993C8.65949 24.7635 8.80925 24.7968 8.96086 24.7968H23.04C23.1916 24.7968 23.3414 24.7635 23.4787 24.6993C23.616 24.635 23.7376 24.5414 23.8347 24.425C23.9319 24.3086 24.0022 24.1723 24.0409 24.0257C24.0795 23.8791 24.0855 23.7258 24.0584 23.5766L22.3642 14.2623C22.3208 14.0238 22.1951 13.8081 22.009 13.6529C21.8229 13.4976 21.5882 13.4126 21.3458 13.4126Z" fill="#004517"/>
</svg>
