<svg width="24" height="24" viewBox="0 0 24 24" fill="none" xmlns="http://www.w3.org/2000/svg">
<path d="M12.5222 15.4455C12.6621 15.3051 12.732 15.1313 12.732 14.9242V12C12.732 11.7929 12.6618 11.6194 12.5215 11.4795C12.3811 11.3396 12.2076 11.2694 12.001 11.2689C11.7943 11.2685 11.6208 11.3386 11.4805 11.4795C11.3401 11.6203 11.2699 11.7938 11.2699 12V14.9242C11.2699 15.1313 11.3401 15.3051 11.4805 15.4455C11.6208 15.5858 11.7943 15.6558 12.001 15.6553C12.2076 15.6548 12.3814 15.5853 12.5222 15.4455ZM12.5222 9.59629C12.6621 9.45641 12.732 9.28291 12.732 9.07578C12.732 8.86865 12.6618 8.69514 12.5215 8.55527C12.3811 8.41539 12.2076 8.34521 12.001 8.34472C11.7943 8.34424 11.6208 8.41442 11.4805 8.55527C11.3401 8.69612 11.2699 8.86962 11.2699 9.07578C11.2699 9.28194 11.3401 9.45568 11.4805 9.59702C11.6208 9.73836 11.7943 9.8083 12.001 9.80683C12.2076 9.80537 12.3814 9.73519 12.5222 9.59629ZM12.001 19.3105C10.9897 19.3105 10.0393 19.1185 9.14986 18.7345C8.26041 18.3504 7.48671 17.8297 6.82876 17.1722C6.17082 16.5147 5.65006 15.741 5.2665 14.8511C4.88294 13.9612 4.69092 13.0108 4.69043 12C4.68994 10.9892 4.88197 10.0388 5.2665 9.14888C5.65104 8.25895 6.17179 7.48525 6.82876 6.82779C7.48574 6.17033 8.25944 5.64957 9.14986 5.26552C10.0403 4.88148 10.9907 4.68945 12.001 4.68945C13.0113 4.68945 13.9617 4.88148 14.8521 5.26552C15.7425 5.64957 16.5162 6.17033 17.1732 6.82779C17.8302 7.48525 18.3512 8.25895 18.7362 9.14888C19.1212 10.0388 19.313 10.9892 19.3115 12C19.3101 13.0108 19.118 13.9612 18.7354 14.8511C18.3529 15.741 17.8321 16.5147 17.1732 17.1722C16.5143 17.8297 15.7406 18.3507 14.8521 18.7352C13.9636 19.1197 13.0132 19.3115 12.001 19.3105ZM12.001 17.8484C13.6337 17.8484 15.0166 17.2819 16.1497 16.1487C17.2828 15.0156 17.8494 13.6327 17.8494 12C17.8494 10.3673 17.2828 8.9844 16.1497 7.85126C15.0166 6.71813 13.6337 6.15156 12.001 6.15156C10.3683 6.15156 8.98537 6.71813 7.85224 7.85126C6.71911 8.9844 6.15254 10.3673 6.15254 12C6.15254 13.6327 6.71911 15.0156 7.85224 16.1487C8.98537 17.2819 10.3683 17.8484 12.001 17.8484Z" fill="#878A93"/>
</svg>
