<svg width="16" height="16" viewBox="0 0 16 16" fill="none" xmlns="http://www.w3.org/2000/svg">
<circle cx="8" cy="8" r="8" fill="#AEB0B6"/>
<path d="M7.99922 5.6C8.44105 5.6 8.79922 5.24183 8.79922 4.8C8.79922 4.35817 8.44105 4 7.99922 4C7.55739 4 7.19922 4.35817 7.19922 4.8C7.19922 5.24183 7.55739 5.6 7.99922 5.6Z" fill="white"/>
<path d="M7.99922 6.3999C7.78705 6.3999 7.58356 6.48419 7.43353 6.63422C7.2835 6.78425 7.19922 6.98773 7.19922 7.1999V11.1999C7.19922 11.4121 7.2835 11.6156 7.43353 11.7656C7.58356 11.9156 7.78705 11.9999 7.99922 11.9999C8.21139 11.9999 8.41487 11.9156 8.5649 11.7656C8.71493 11.6156 8.79922 11.4121 8.79922 11.1999V7.1999C8.79922 6.98773 8.71493 6.78425 8.5649 6.63422C8.41487 6.48419 8.21139 6.3999 7.99922 6.3999Z" fill="white"/>
</svg>
