<svg width="18" height="18" viewBox="0 0 18 18" fill="none" xmlns="http://www.w3.org/2000/svg">
<path d="M9.02832 1.00195C9.3395 1.00195 9.64534 1.08162 9.91699 1.2334L15.251 4.41699H15.2246C15.4971 4.57537 15.7228 4.80337 15.8789 5.07715C16.035 5.35094 16.1158 5.66142 16.1133 5.97656V11.8037C16.1131 12.4507 15.7625 13.0476 15.1973 13.3613L9.86426 16.7783C9.60048 16.9246 9.30359 17.0019 9.00196 17.002C8.70026 17.002 8.40349 16.9246 8.13965 16.7783L2.80567 13.3613C2.52801 13.2073 2.29671 12.9817 2.13574 12.708C1.97472 12.4341 1.89016 12.1214 1.89063 11.8037V5.97559C1.89063 5.32849 2.24038 4.73169 2.80567 4.41699L8.13965 1.2334C8.4113 1.0816 8.71714 1.00197 9.02832 1.00195ZM9.00196 6.33496C8.29477 6.33503 7.61627 6.61615 7.11621 7.11621C6.61615 7.61627 6.33503 8.29477 6.33496 9.00195C6.33496 9.70911 6.61625 10.3876 7.11621 10.8877C7.61627 11.3878 8.29477 11.6689 9.00196 11.6689C9.70923 11.6689 10.3876 11.3878 10.8877 10.8877C11.3878 10.3876 11.6689 9.70923 11.6689 9.00195C11.6689 8.29477 11.3878 7.61627 10.8877 7.11621C10.3876 6.61625 9.70911 6.33496 9.00196 6.33496Z" fill="#C2C4C8"/>
</svg>
