<svg width="18" height="18" viewBox="0 0 18 18" fill="none" xmlns="http://www.w3.org/2000/svg">
<path d="M9 0.998047C13.4182 0.998239 17 4.58079 17 8.99902C16.9998 13.4171 13.4181 16.9988 9 16.999C4.58177 16.999 0.999215 13.4172 0.999023 8.99902C0.999023 4.58067 4.58165 0.998047 9 0.998047ZM8.99121 7.6709C8.25401 7.6709 7.65625 8.26866 7.65625 9.00586C7.65638 9.74294 8.25409 10.3408 8.99121 10.3408C9.72821 10.3407 10.326 9.74286 10.3262 9.00586C10.3262 8.26874 9.7283 7.67103 8.99121 7.6709ZM9.00781 3.00977C5.69517 3.00994 3.00994 5.69517 3.00977 9.00781C3.00998 9.39929 3.32723 9.7168 3.71875 9.7168C4.11012 9.71662 4.42752 9.39918 4.42773 9.00781C4.4279 6.47847 6.47847 4.4279 9.00781 4.42773C9.54624 4.42777 10.062 4.52083 10.54 4.69043C10.909 4.82108 11.3143 4.6276 11.4453 4.25879C11.5762 3.88987 11.3834 3.48466 11.0146 3.35352C10.3865 3.1306 9.71013 3.0098 9.00781 3.00977ZM14.3262 6.23145C14.1446 5.88457 13.7161 5.75024 13.3691 5.93164C13.0224 6.11317 12.8881 6.54175 13.0693 6.88867C13.1264 6.99772 13.1803 7.1097 13.2285 7.22363C13.4601 7.77084 13.5878 8.37378 13.5879 9.00781C13.5881 9.39929 13.9063 9.7168 14.2979 9.7168C14.6891 9.71643 15.0066 9.39906 15.0068 9.00781C15.0068 8.18038 14.8385 7.38988 14.5342 6.6709C14.4709 6.52135 14.4009 6.37445 14.3262 6.23145ZM13.1787 4.38965C12.9236 4.15926 12.5294 4.17961 12.2988 4.43457L9.63672 7.37891C10.0401 7.52981 10.3719 7.82465 10.5703 8.20215L13.2227 5.26953C13.4533 5.01443 13.4338 4.62026 13.1787 4.38965Z" fill="#C2C4C8"/>
</svg>
