<svg width="18" height="18" viewBox="0 0 18 18" fill="none" xmlns="http://www.w3.org/2000/svg">
<g clip-path="url(#clip0_1935_34160)">
<path d="M11.55 10.35V3.55C11.55 2.8737 11.2813 2.2251 10.8031 1.74688C10.3249 1.26866 9.6763 1 9 1C8.3237 1 7.6751 1.26866 7.19688 1.74688C6.71866 2.2251 6.45 2.8737 6.45 3.55V10.35C5.7364 10.8852 5.20928 11.6314 4.94332 12.4828C4.67735 13.3342 4.68602 14.2477 4.9681 15.094C5.25017 15.9402 5.79135 16.6762 6.51498 17.1978C7.23861 17.7193 8.108 18 9 18C9.892 18 10.7614 17.7193 11.485 17.1978C12.2086 16.6762 12.7498 15.9402 13.0319 15.094C13.314 14.2477 13.3226 13.3342 13.0567 12.4828C12.7907 11.6314 12.2636 10.8852 11.55 10.35ZM9 2.7C9.22543 2.7 9.44163 2.78955 9.60104 2.94896C9.76045 3.10837 9.85 3.32457 9.85 3.55V6.1H8.15V3.55C8.15 3.32457 8.23955 3.10837 8.39896 2.94896C8.55837 2.78955 8.77457 2.7 9 2.7Z" fill="#C2C4C8"/>
</g>
<defs>
<clipPath id="clip0_1935_34160">
<rect width="18" height="18" fill="white"/>
</clipPath>
</defs>
</svg>
