<svg width="18" height="18" viewBox="0 0 18 18" fill="none" xmlns="http://www.w3.org/2000/svg">
<path d="M7.13076 6.01871C6.63435 5.52231 6.35547 4.84903 6.35547 4.147C6.35547 3.44497 6.63435 2.7717 7.13076 2.27529C7.62717 1.77888 8.30044 1.5 9.00247 1.5C9.7045 1.5 10.3778 1.77888 10.8742 2.27529C11.3706 2.7717 11.6495 3.44497 11.6495 4.147C11.6495 4.84903 11.3706 5.52231 10.8742 6.01871C10.3778 6.51512 9.7045 6.794 9.00247 6.794C8.30044 6.794 7.62717 6.51512 7.13076 6.01871Z" stroke="#C2C4C8" stroke-width="1.7836" stroke-linecap="round" stroke-linejoin="round"/>
<path d="M13.5585 6.79492H4.44403C4.2374 6.79489 4.0373 6.86739 3.87864 6.99977C3.71997 7.13215 3.61281 7.31602 3.57582 7.51932L2.13144 15.4603C2.1083 15.5875 2.11339 15.7182 2.14634 15.8432C2.17929 15.9682 2.23929 16.0844 2.32212 16.1836C2.40494 16.2829 2.50856 16.3627 2.62563 16.4175C2.74271 16.4722 2.8704 16.5006 2.99965 16.5006H15.0029C15.1322 16.5006 15.2599 16.4722 15.3769 16.4175C15.494 16.3627 15.5976 16.2829 15.6805 16.1836C15.7633 16.0844 15.8233 15.9682 15.8562 15.8432C15.8892 15.7182 15.8943 15.5875 15.8711 15.4603L14.4268 7.51932C14.3898 7.31602 14.2826 7.13215 14.1239 6.99977C13.9653 6.86739 13.7652 6.79489 13.5585 6.79492Z" fill="#C2C4C8"/>
</svg>
