<svg width="32" height="32" viewBox="0 0 32 32" fill="none" xmlns="http://www.w3.org/2000/svg">
<g clip-path="url(#clip0_1509_20313)">
<path d="M-0.117188 6.33071C0.145181 5.84731 0.222726 5.49248 0.798297 5.22688C1.01097 5.12874 1.38893 5.09519 1.62193 5.09375C2.66119 5.08725 3.70575 5.09115 4.74479 5.09109L10.8942 5.09056L16.6456 5.09047C17.6642 5.0905 18.6826 5.08649 19.7003 5.09838C20.5705 5.10857 21.2196 5.63921 21.322 6.52206C21.3695 6.93127 21.3509 7.36167 21.3504 7.77422L21.3462 9.80065C22.0747 9.76449 22.9169 9.80013 23.6543 9.79859C24.5957 9.7966 25.667 9.74033 26.5876 9.88455C27.0041 9.94981 27.7243 10.8278 28.0024 11.1409L29.2767 12.5781L30.3623 13.7988C30.5708 14.0333 30.794 14.2752 30.9845 14.524C31.1216 14.7031 31.1887 14.9528 31.285 15.1376V22.6747C31.1228 23.0345 31.0127 23.3086 30.7011 23.5756C30.5232 23.7286 30.3107 23.836 30.082 23.8885C29.7685 23.963 27.9659 23.9679 27.5803 23.9414C27.4963 24.5025 27.2458 25.0944 26.9153 25.5544C26.331 26.3559 25.4526 26.8928 24.4729 27.0473C22.5029 27.3625 20.6541 25.9061 20.3465 23.9562C19.5795 23.9147 18.5874 23.9452 17.7981 23.9452L12.9948 23.9462C12.3604 23.9466 11.444 23.9789 10.8343 23.9416C10.7417 24.5099 10.5214 25.0498 10.1898 25.5206C9.60866 26.3356 8.72587 26.8845 7.73787 27.0453C5.75677 27.3756 3.91508 25.9142 3.59615 23.9586C2.8312 23.9246 2.00543 24.0655 1.38462 23.4866C0.775079 22.9182 0.930508 21.6589 0.911798 20.8401C0.543559 20.8356 0.425012 20.8392 0.0838009 20.7022L-0.117188 20.4315V6.33071ZM0.920495 19.7328C3.03422 19.7479 5.14805 19.7516 7.26184 19.7439L19.8312 19.7447C19.9805 19.7481 20.1411 19.7486 20.2893 19.7569C20.2553 18.817 20.2925 17.5961 20.2925 16.6352L20.2922 10.1966L20.2936 7.96764C20.2939 7.54181 20.299 7.11558 20.2779 6.68867C20.2582 6.29182 20.0562 6.1679 19.6616 6.15959C18.7176 6.13969 17.7674 6.15244 16.8208 6.1525L11.2386 6.15241L4.89704 6.15207C3.82667 6.15198 2.51388 6.11623 1.46685 6.16431C1.07329 6.20451 0.95639 6.38124 0.933115 6.77809C0.912712 7.12588 0.924749 7.48584 0.925736 7.83528L0.930989 9.78074L0.930091 16.3284C0.930278 17.323 0.977041 18.7692 0.920495 19.7328ZM21.3454 19.7446C22.1833 19.7107 23.1868 19.7255 24.0284 19.7524C25.8667 19.8111 27.214 21.0786 27.5846 22.8643C28.043 22.8807 29.7806 22.9939 30.0818 22.7262C30.3121 22.3826 30.2367 21.3047 30.2363 20.8513C30.2312 19.7922 30.2318 18.7331 30.2381 17.674C29.0279 17.6645 27.8178 17.6623 26.6076 17.6672C25.1516 17.6683 23.4364 17.9454 23.4348 15.8619C23.4345 15.4158 23.4347 14.9553 23.4349 14.508L23.4347 10.8749C23.1175 10.8728 21.6077 10.8915 21.3686 10.8475C21.3316 11.0941 21.3419 11.5938 21.3429 11.8551L21.3483 13.429C21.3494 15.4947 21.386 17.6919 21.3454 19.7446ZM20.5471 22.1063C20.7924 21.5075 20.9733 21.287 21.3799 20.7916C20.7716 20.8308 20.0785 20.809 19.4608 20.8218C19.1811 20.8275 18.4411 20.8478 18.2122 20.8159C18.1692 21.4417 18.1992 22.2178 18.1929 22.861C18.8229 22.8863 19.7009 22.9065 20.3334 22.8836C20.3868 22.6371 20.4519 22.3411 20.5471 22.1063ZM3.58152 22.8835C3.73249 22.1782 3.91263 21.7131 4.35858 21.1384C4.42077 21.0582 4.586 20.8784 4.56143 20.8063L4.54662 20.8002C4.02404 20.8119 3.50139 20.8191 2.97872 20.8219C2.69631 20.8249 2.25762 20.8483 1.9906 20.8065C1.97188 21.2552 1.8757 22.4337 2.13541 22.7481C2.52452 22.9525 3.13266 22.8906 3.58152 22.8835ZM10.8253 22.8627C11.1704 22.8769 12.1057 22.9139 12.4376 22.8819L12.4389 20.8186C11.9092 20.8303 11.3521 20.816 10.8209 20.8139C10.5861 20.8129 10.0366 20.8201 9.82798 20.7833C9.84132 20.9039 10.3208 21.4485 10.438 21.6896C10.6562 22.1383 10.7206 22.3788 10.8253 22.8627ZM6.86695 20.8347C5.44465 21.0225 4.44257 22.3259 4.62654 23.7487C4.81047 25.1716 6.11112 26.1772 7.53443 25.9971C8.96323 25.8163 9.97359 24.5096 9.78892 23.0813C9.60424 21.653 8.29477 20.6462 6.86695 20.8347ZM13.5107 20.7981C13.4766 21.4498 13.4962 22.212 13.4978 22.8719C14.7173 22.8873 15.9369 22.8897 17.1564 22.879C17.159 22.2825 17.1833 21.4103 17.151 20.8277C16.4178 20.8202 15.6846 20.8179 14.9514 20.8207C14.6308 20.8229 13.7752 20.8481 13.5107 20.7981ZM24.5659 16.3972C24.9015 16.6518 25.1943 16.5989 25.595 16.6109C27.1238 16.6568 28.7189 16.5462 30.2418 16.6123C30.2199 16.1934 30.3276 15.6039 30.1649 15.2194C30.0715 14.9989 26.765 11.2879 26.4605 11.0138C26.4171 10.9743 26.3707 10.9381 26.3217 10.9056C25.6712 10.818 25.0696 10.9191 24.4883 10.8669C24.4795 11.882 24.4764 12.897 24.479 13.9121C24.4789 14.4964 24.4322 15.9479 24.5659 16.3972ZM24.2782 25.9978C25.709 25.8193 26.7221 24.512 26.5378 23.082C26.3536 21.652 25.0422 20.6441 23.613 20.8341C22.1918 21.023 21.1909 22.3254 21.3741 23.7473C21.5573 25.1692 22.8556 26.1753 24.2782 25.9978Z" fill="#FF8C00"/>
<path d="M23.7507 21.8634C24.6037 21.7503 25.388 22.3465 25.5073 23.1986C25.6265 24.0506 25.0359 24.8393 24.1848 24.9647C23.3249 25.0913 22.5264 24.4933 22.4059 23.6326C22.2855 22.7718 22.8891 21.9776 23.7507 21.8634ZM24.1262 23.894C24.3906 23.801 24.5299 23.5114 24.4374 23.2467C24.345 22.9821 24.0558 22.8421 23.7909 22.9339C23.5251 23.026 23.3846 23.3164 23.4773 23.582C23.57 23.8476 23.8608 23.9874 24.1262 23.894Z" fill="#FF8C00"/>
<path d="M7.00437 21.8651C7.85622 21.7531 8.63922 22.3484 8.759 23.1992C8.87878 24.05 8.29057 24.8384 7.44091 24.9659C6.58023 25.0951 5.77938 24.4976 5.65807 23.6358C5.53675 22.774 6.14149 21.9786 7.00437 21.8651ZM6.79891 23.7122C6.9289 23.8931 7.16166 23.9683 7.37292 23.8974C7.64014 23.8078 7.78329 23.5178 7.69191 23.2512C7.60052 22.9845 7.30956 22.8433 7.04356 22.9365C6.89247 22.9894 6.77517 23.1104 6.72703 23.2631C6.67888 23.4157 6.7055 23.5821 6.79891 23.7122Z" fill="#FF8C00"/>
</g>
<defs>
<clipPath id="clip0_1509_20313">
<rect width="32" height="32" fill="white"/>
</clipPath>
</defs>
</svg>
