<svg width="12" height="12" viewBox="0 0 12 12" fill="none" xmlns="http://www.w3.org/2000/svg">
<path d="M6.3005 10.8993C7.2305 10.0963 10 7.49626 10 4.99976C10 3.93889 9.57857 2.92147 8.82843 2.17133C8.07828 1.42118 7.06087 0.999756 6 0.999756C4.93913 0.999756 3.92172 1.42118 3.17157 2.17133C2.42143 2.92147 2 3.93889 2 4.99976C2 7.49626 4.7695 10.0963 5.6995 10.8993C5.78614 10.9644 5.8916 10.9996 6 10.9996C6.1084 10.9996 6.21386 10.9644 6.3005 10.8993Z" fill="#989BA2"/>
<path d="M6 6.49976C6.82843 6.49976 7.5 5.82818 7.5 4.99976C7.5 4.17133 6.82843 3.49976 6 3.49976C5.17157 3.49976 4.5 4.17133 4.5 4.99976C4.5 5.82818 5.17157 6.49976 6 6.49976Z" fill="white"/>
</svg>
