<svg width="18" height="18" viewBox="0 0 18 18" fill="none" xmlns="http://www.w3.org/2000/svg">
<path d="M9.45075 16.3488C10.8458 15.1443 15 11.2443 15 7.49951C15 5.90821 14.3679 4.38209 13.2426 3.25687C12.1174 2.13165 10.5913 1.49951 9 1.49951C7.4087 1.49951 5.88258 2.13165 4.75736 3.25687C3.63214 4.38209 3 5.90821 3 7.49951C3 11.2443 7.15425 15.1443 8.54925 16.3488C8.67921 16.4465 8.8374 16.4993 9 16.4993C9.1626 16.4993 9.32079 16.4465 9.45075 16.3488Z" fill="#212225"/>
<path d="M9 9.74951C10.2426 9.74951 11.25 8.74215 11.25 7.49951C11.25 6.25687 10.2426 5.24951 9 5.24951C7.75736 5.24951 6.75 6.25687 6.75 7.49951C6.75 8.74215 7.75736 9.74951 9 9.74951Z" fill="white"/>
</svg>
