<svg width="32" height="32" viewBox="0 0 32 32" fill="none" xmlns="http://www.w3.org/2000/svg">
<path d="M21.962 12.522H20.9682V10.5344C20.9682 7.79154 18.7421 5.56543 15.9992 5.56543C13.2563 5.56543 11.0302 7.79154 11.0302 10.5344V12.522H10.0364C8.94325 12.522 8.04883 13.4164 8.04883 14.5096V24.4476C8.04883 25.5408 8.94325 26.4352 10.0364 26.4352H21.962C23.0552 26.4352 23.9496 25.5408 23.9496 24.4476V14.5096C23.9496 13.4164 23.0552 12.522 21.962 12.522ZM15.9992 21.4662C14.906 21.4662 14.0116 20.5718 14.0116 19.4786C14.0116 18.3854 14.906 17.491 15.9992 17.491C17.0924 17.491 17.9868 18.3854 17.9868 19.4786C17.9868 20.5718 17.0924 21.4662 15.9992 21.4662ZM13.0178 12.522V10.5344C13.0178 8.88472 14.3495 7.55303 15.9992 7.55303C17.6489 7.55303 18.9806 8.88472 18.9806 10.5344V12.522H13.0178Z" fill="white"/>
</svg>
