<svg width="38" height="46" viewBox="0 0 38 46" fill="none" xmlns="http://www.w3.org/2000/svg">
<g filter="url(#filter0_d_1165_10285)">
<path d="M20.0518 36.6386C23.3067 33.7478 33 24.3877 33 15.4002C33 11.581 31.525 7.91827 28.8995 5.21772C26.274 2.51716 22.713 1 19 1C15.287 1 11.726 2.51716 9.10051 5.21772C6.475 7.91827 5 11.581 5 15.4002C5 24.3877 14.6933 33.7478 17.9482 36.6386C18.2515 36.8732 18.6206 37 19 37C19.3794 37 19.7485 36.8732 20.0518 36.6386Z" fill="#06AED4"/>
<path d="M19 24.4043C24.2467 24.4043 28.5 20.151 28.5 14.9043C28.5 9.65759 24.2467 5.4043 19 5.4043C13.7533 5.4043 9.5 9.65759 9.5 14.9043C9.5 20.151 13.7533 24.4043 19 24.4043Z" fill="white"/>
<path d="M14.7986 18.3904V16.8269L19.4042 9.55024H20.7079V11.7762H19.9129L16.8125 16.6891V16.7739H23.2412V18.3904H14.7986ZM19.9765 20.4043V17.9134L19.9977 17.2138V9.55024H21.8527V20.4043H19.9765Z" fill="#06AED4"/>
</g>
<defs>
<filter id="filter0_d_1165_10285" x="0" y="0" width="38" height="46" filterUnits="userSpaceOnUse" color-interpolation-filters="sRGB">
<feFlood flood-opacity="0" result="BackgroundImageFix"/>
<feColorMatrix in="SourceAlpha" type="matrix" values="0 0 0 0 0 0 0 0 0 0 0 0 0 0 0 0 0 0 127 0" result="hardAlpha"/>
<feOffset dy="4"/>
<feGaussianBlur stdDeviation="2.5"/>
<feComposite in2="hardAlpha" operator="out"/>
<feColorMatrix type="matrix" values="0 0 0 0 0 0 0 0 0 0 0 0 0 0 0 0 0 0 0.2 0"/>
<feBlend mode="normal" in2="BackgroundImageFix" result="effect1_dropShadow_1165_10285"/>
<feBlend mode="normal" in="SourceGraphic" in2="effect1_dropShadow_1165_10285" result="shape"/>
</filter>
</defs>
</svg>
