<svg width="38" height="46" viewBox="0 0 38 46" fill="none" xmlns="http://www.w3.org/2000/svg">
<g filter="url(#filter0_d_1165_10305)">
<path d="M20.0518 36.6386C23.3067 33.7478 33 24.3877 33 15.4002C33 11.581 31.525 7.91827 28.8995 5.21772C26.274 2.51716 22.713 1 19 1C15.287 1 11.726 2.51716 9.10051 5.21772C6.475 7.91827 5 11.581 5 15.4002C5 24.3877 14.6933 33.7478 17.9482 36.6386C18.2515 36.8732 18.6206 37 19 37C19.3794 37 19.7485 36.8732 20.0518 36.6386Z" fill="#7839EE"/>
<path d="M19 24.4043C24.2467 24.4043 28.5 20.151 28.5 14.9043C28.5 9.65759 24.2467 5.4043 19 5.4043C13.7533 5.4043 9.5 9.65759 9.5 14.9043C9.5 20.151 13.7533 24.4043 19 24.4043Z" fill="white"/>
<path d="M18.9994 20.5527C18.2362 20.5527 17.5578 20.422 16.9642 20.1605C16.3742 19.899 15.9078 19.5351 15.5651 19.0687C15.2224 18.6024 15.0404 18.0635 15.0192 17.4523H17.0119C17.0296 17.7455 17.1268 18.0017 17.3034 18.2208C17.4801 18.4363 17.7151 18.6041 18.0083 18.7243C18.3016 18.8444 18.6302 18.9044 18.9941 18.9044C19.3827 18.9044 19.7272 18.8373 20.0275 18.7031C20.3279 18.5653 20.5628 18.3745 20.7324 18.1307C20.902 17.8869 20.985 17.606 20.9815 17.288C20.985 16.9594 20.9002 16.6697 20.7271 16.4188C20.554 16.168 20.3031 15.9719 19.9745 15.8305C19.6495 15.6892 19.2573 15.6185 18.798 15.6185H17.8387V14.1028H18.798C19.176 14.1028 19.5064 14.0374 19.7891 13.9067C20.0752 13.776 20.2996 13.5922 20.4621 13.3555C20.6247 13.1153 20.7042 12.8379 20.7006 12.5234C20.7042 12.2161 20.6353 11.9493 20.4939 11.7232C20.3561 11.4935 20.16 11.3151 19.9056 11.1879C19.6548 11.0607 19.3598 10.9971 19.0206 10.9971C18.6885 10.9971 18.3811 11.0572 18.0984 11.1773C17.8157 11.2974 17.5879 11.4688 17.4147 11.6914C17.2416 11.9104 17.1497 12.1719 17.1391 12.4757H15.2471C15.2612 11.868 15.4361 11.3345 15.7718 10.8752C16.111 10.4123 16.5632 10.052 17.1285 9.79403C17.6939 9.53257 18.3281 9.40185 19.0312 9.40185C19.7555 9.40185 20.3844 9.53787 20.9179 9.80993C21.455 10.0785 21.8701 10.4406 22.1634 10.8964C22.4566 11.3522 22.6033 11.8557 22.6033 12.4069C22.6068 13.0181 22.4266 13.5304 22.0627 13.9438C21.7023 14.3572 21.2288 14.6275 20.6423 14.7547V14.8395C21.4055 14.9455 21.9902 15.2281 22.3966 15.6874C22.8064 16.1432 23.0096 16.7103 23.006 17.3887C23.006 17.9964 22.8329 18.5405 22.4867 19.021C22.1439 19.498 21.6705 19.8725 21.0663 20.1446C20.4657 20.4167 19.7767 20.5527 18.9994 20.5527Z" fill="#7839EE"/>
</g>
<defs>
<filter id="filter0_d_1165_10305" x="0" y="0" width="38" height="46" filterUnits="userSpaceOnUse" color-interpolation-filters="sRGB">
<feFlood flood-opacity="0" result="BackgroundImageFix"/>
<feColorMatrix in="SourceAlpha" type="matrix" values="0 0 0 0 0 0 0 0 0 0 0 0 0 0 0 0 0 0 127 0" result="hardAlpha"/>
<feOffset dy="4"/>
<feGaussianBlur stdDeviation="2.5"/>
<feComposite in2="hardAlpha" operator="out"/>
<feColorMatrix type="matrix" values="0 0 0 0 0 0 0 0 0 0 0 0 0 0 0 0 0 0 0.2 0"/>
<feBlend mode="normal" in2="BackgroundImageFix" result="effect1_dropShadow_1165_10305"/>
<feBlend mode="normal" in="SourceGraphic" in2="effect1_dropShadow_1165_10305" result="shape"/>
</filter>
</defs>
</svg>
