<svg width="38" height="46" viewBox="0 0 38 46" fill="none" xmlns="http://www.w3.org/2000/svg">
<path d="M20.0518 36.6386C23.3067 33.7478 33 24.3877 33 15.4002C33 11.581 31.525 7.91827 28.8995 5.21772C26.274 2.51716 22.713 1 19 1C15.287 1 11.726 2.51716 9.10051 5.21772C6.475 7.91827 5 11.581 5 15.4002C5 24.3877 14.6933 33.7478 17.9482 36.6386C18.2515 36.8732 18.6206 37 19 37C19.3794 37 19.7485 36.8732 20.0518 36.6386Z" fill="#6BA85B"/>
<path d="M19 24.4043C24.2467 24.4043 28.5 20.151 28.5 14.9043C28.5 9.65759 24.2467 5.4043 19 5.4043C13.7533 5.4043 9.5 9.65759 9.5 14.9043C9.5 20.151 13.7533 24.4043 19 24.4043Z" fill="#D5D8DE"/>
<path d="M19.0159 20.5527C18.3093 20.5527 17.6768 20.4202 17.1186 20.1552C16.5603 19.8867 16.1169 19.5192 15.7883 19.0528C15.4633 18.5865 15.2902 18.0529 15.269 17.4523H17.1769C17.2122 17.8975 17.4048 18.2614 17.7546 18.5441C18.1044 18.8232 18.5248 18.9627 19.0159 18.9627C19.4011 18.9627 19.7438 18.8744 20.0441 18.6978C20.3444 18.5211 20.5812 18.2755 20.7543 17.9611C20.9274 17.6466 21.0122 17.288 21.0087 16.8852C21.0122 16.4754 20.9256 16.1114 20.749 15.7934C20.5723 15.4755 20.3303 15.2264 20.0229 15.0462C19.7155 14.8624 19.3622 14.7706 18.9629 14.7706C18.6379 14.767 18.3181 14.8271 18.0037 14.9508C17.6892 15.0744 17.4401 15.237 17.2564 15.4384L15.481 15.1469L16.048 9.55024H22.3442V11.1932H17.6751L17.3624 14.071H17.426C17.6274 13.8343 17.9118 13.6382 18.2793 13.4827C18.6467 13.3237 19.0495 13.2442 19.4876 13.2442C20.1448 13.2442 20.7313 13.3997 21.2472 13.7106C21.763 14.018 22.1693 14.442 22.4661 14.9826C22.7629 15.5232 22.9113 16.1415 22.9113 16.8375C22.9113 17.5548 22.7453 18.1943 22.4131 18.756C22.0845 19.3143 21.627 19.7542 21.0405 20.0757C20.4575 20.3937 19.7826 20.5527 19.0159 20.5527Z" fill="#3D7A00"/>
</svg>
