<svg width="38" height="46" viewBox="0 0 38 46" fill="none" xmlns="http://www.w3.org/2000/svg">
<path d="M20.0518 36.6386C23.3067 33.7478 33 24.3877 33 15.4002C33 11.581 31.525 7.91827 28.8995 5.21772C26.274 2.51716 22.713 1 19 1C15.287 1 11.726 2.51716 9.10051 5.21772C6.475 7.91827 5 11.581 5 15.4002C5 24.3877 14.6933 33.7478 17.9482 36.6386C18.2515 36.8732 18.6206 37 19 37C19.3794 37 19.7485 36.8732 20.0518 36.6386Z" fill="#C76AA5"/>
<path d="M19 24.4043C24.2467 24.4043 28.5 20.151 28.5 14.9043C28.5 9.65759 24.2467 5.4043 19 5.4043C13.7533 5.4043 9.5 9.65759 9.5 14.9043C9.5 20.151 13.7533 24.4043 19 24.4043Z" fill="#D5D8DE"/>
<path d="M15.5572 20.4043V19.0719L19.092 15.6067C19.43 15.2653 19.7118 14.9621 19.9371 14.6969C20.1625 14.4318 20.3316 14.1749 20.4442 13.9263C20.5569 13.6777 20.6133 13.4126 20.6133 13.1309C20.6133 12.8094 20.5404 12.5343 20.3945 12.3056C20.2487 12.0736 20.0482 11.8946 19.793 11.7686C19.5378 11.6427 19.2478 11.5797 18.9229 11.5797C18.5882 11.5797 18.2949 11.6493 18.043 11.7885C17.7911 11.9244 17.5955 12.1183 17.4563 12.3702C17.3204 12.6221 17.2525 12.9221 17.2525 13.2701H15.4975C15.4975 12.6238 15.645 12.062 15.94 11.5847C16.235 11.1074 16.641 10.7379 17.158 10.476C17.6784 10.2142 18.275 10.0833 18.9478 10.0833C19.6306 10.0833 20.2305 10.2109 20.7475 10.4661C21.2646 10.7213 21.6656 11.071 21.9506 11.5151C22.239 11.9592 22.3832 12.4663 22.3832 13.0364C22.3832 13.4176 22.3103 13.7921 22.1644 14.16C22.0186 14.5279 21.7617 14.9355 21.3938 15.383C21.0292 15.8304 20.5172 16.3723 19.8576 17.0087L18.1026 18.7935V18.8631H22.5373V20.4043H15.5572Z" fill="#A82078"/>
</svg>
