<svg width="24" height="24" viewBox="0 0 24 24" fill="none" xmlns="http://www.w3.org/2000/svg">
<path d="M13.2344 19.4331C13.4523 20.2791 13.9127 21.0273 14.5352 21.6021C14.4755 21.6724 14.414 21.7417 14.3486 21.8071C14.037 22.1187 13.6669 22.366 13.2598 22.5347C12.8524 22.7034 12.4155 22.7905 11.9746 22.7905C11.5337 22.7905 11.0968 22.7034 10.6895 22.5347C10.2823 22.366 9.91227 22.1187 9.60059 21.8071C9.28881 21.4954 9.04178 21.1246 8.87305 20.7173C8.70438 20.3101 8.61725 19.8739 8.61719 19.4331H13.2344ZM11.9746 2.64502C15.632 2.64506 18.6894 5.70247 18.6895 9.35986C18.6895 10.8036 19.1034 12.6614 19.5752 14.3101C18.972 14.0074 18.2912 13.8364 17.5703 13.8364C15.098 13.8365 13.0938 15.8406 13.0938 18.313H3.02148C3.04902 18.2577 5.25977 13.8087 5.25977 9.35986C5.25984 5.70244 8.31717 2.64502 11.9746 2.64502Z" fill="#005EAD"/>
<path d="M18.6309 14.6655C18.7487 14.6631 18.8642 14.7012 18.957 14.7739C19.0492 14.8462 19.1121 14.9483 19.1348 15.061L19.2637 15.6792C19.3778 15.7336 19.4877 15.7953 19.5938 15.8638L20.207 15.6626C20.275 15.6405 20.3468 15.6321 20.418 15.6392C20.4891 15.6462 20.5578 15.6686 20.6201 15.7036C20.6964 15.7468 20.7599 15.8087 20.8047 15.8823L21.3994 16.8647C21.4621 16.9628 21.4873 17.0807 21.4697 17.1958C21.4521 17.3109 21.3929 17.4158 21.3037 17.4907L20.8193 17.9038V18.2798L21.2969 18.7036C21.3847 18.777 21.4429 18.8798 21.4619 18.9927C21.4809 19.1058 21.4587 19.2226 21.3994 19.3208L20.8252 20.3022C20.7806 20.3773 20.7168 20.4393 20.6406 20.4819C20.5635 20.5246 20.4768 20.5477 20.3887 20.5483C20.334 20.5487 20.2788 20.5403 20.2266 20.5239L19.6172 20.3218C19.5103 20.3903 19.3985 20.4522 19.2832 20.5063L19.1553 21.1245C19.1316 21.2383 19.0683 21.3402 18.9766 21.4116C18.8837 21.4843 18.7683 21.5225 18.6504 21.52H17.4609C17.343 21.5225 17.2276 21.4843 17.1348 21.4116C17.0433 21.3401 16.9806 21.2382 16.957 21.1245L16.8281 20.5063C16.7143 20.4515 16.6035 20.3898 16.4971 20.3218L15.8848 20.5239C15.8327 20.5403 15.7782 20.5487 15.7236 20.5483C15.6356 20.5477 15.5487 20.5246 15.4717 20.4819C15.3957 20.4395 15.3317 20.378 15.2871 20.3032L14.6924 19.3208C14.6305 19.2218 14.6069 19.103 14.626 18.9878C14.645 18.8726 14.7055 18.7687 14.7959 18.6948L15.2715 18.0923V17.9058L14.7949 17.4819C14.707 17.4085 14.6479 17.3058 14.6289 17.1929C14.6099 17.0798 14.6322 16.9629 14.6914 16.8647L15.2871 15.8833C15.3317 15.8081 15.3954 15.7462 15.4717 15.7036C15.5487 15.661 15.6356 15.6378 15.7236 15.6372C15.7777 15.6338 15.8322 15.6387 15.8848 15.6519L16.4844 15.8628C16.5915 15.7943 16.7026 15.7333 16.8174 15.6792L16.9463 15.061C16.9699 14.9473 17.0335 14.8454 17.125 14.7739C17.2177 14.7014 17.3325 14.6632 17.4502 14.6655H18.6309ZM18.0498 16.7749C17.7003 16.7749 17.3644 16.9136 17.1172 17.1606C16.87 17.4079 16.7315 17.7436 16.7314 18.0933C16.7314 18.4429 16.87 18.7786 17.1172 19.0259C17.3644 19.273 17.7003 19.4116 18.0498 19.4116C18.3992 19.4115 18.7344 19.2729 18.9814 19.0259C19.2287 18.7786 19.3672 18.4429 19.3672 18.0933C19.3672 17.7436 19.2287 17.4079 18.9814 17.1606C18.7344 16.9137 18.3991 16.775 18.0498 16.7749Z" fill="#005EAD"/>
</svg>
