<svg width="42" height="42" viewBox="0 0 42 42" fill="none" xmlns="http://www.w3.org/2000/svg">
<mask id="path-1-inside-1_955_6715" fill="white">
<path d="M0 21C0 9.40202 9.40202 0 21 0C32.598 0 42 9.40202 42 21C42 32.598 32.598 42 21 42C9.40202 42 0 32.598 0 21Z"/>
</mask>
<path d="M0 21C0 9.40202 9.40202 0 21 0C32.598 0 42 9.40202 42 21C42 32.598 32.598 42 21 42C9.40202 42 0 32.598 0 21Z" fill="white" fill-opacity="0.2"/>
<path d="M0 21M42 21M42 21M0 21M21 0M42 21M21 42M0 21M21 42V40.8333C10.0464 40.8333 1.16667 31.9536 1.16667 21H0H-1.16667C-1.16667 33.2423 8.75769 43.1667 21 43.1667V42ZM42 21H40.8333C40.8333 31.9536 31.9536 40.8333 21 40.8333V42V43.1667C33.2423 43.1667 43.1667 33.2423 43.1667 21H42ZM21 0V1.16667C31.9536 1.16667 40.8333 10.0464 40.8333 21H42H43.1667C43.1667 8.75769 33.2423 -1.16667 21 -1.16667V0ZM21 0V-1.16667C8.75769 -1.16667 -1.16667 8.75769 -1.16667 21H0H1.16667C1.16667 10.0464 10.0464 1.16667 21 1.16667V0Z" fill="#CAE5FF" fill-opacity="0.2" mask="url(#path-1-inside-1_955_6715)"/>
<path d="M24.0688 8.78096C23.9527 8.62621 23.7908 8.51193 23.6062 8.45435C23.4215 8.39676 23.2234 8.39879 23.0399 8.46015C22.8565 8.5215 22.697 8.63906 22.5842 8.79616C22.4713 8.95326 22.4107 9.1419 22.4111 9.33534V13.0189C22.4111 13.2632 22.5082 13.4974 22.6809 13.6701C22.8536 13.8428 23.0878 13.9398 23.332 13.9398C23.5763 13.9398 23.8105 13.8428 23.9832 13.6701C24.1559 13.4974 24.2529 13.2632 24.2529 13.0189V12.0833L25.3764 13.5752C25.4985 13.7366 25.6704 13.8533 25.8655 13.9072C26.0606 13.9612 26.268 13.9493 26.4557 13.8735L29.1963 12.7721L27.9844 16.4115C27.9383 16.5499 27.9258 16.6972 27.9478 16.8414C27.9698 16.9856 28.0257 17.1225 28.1109 17.2408C28.1962 17.3591 28.3083 17.4555 28.4381 17.5221C28.5679 17.5886 28.7116 17.6233 28.8574 17.6234H31.762L29.2111 19.6678C29.1035 19.7541 29.0167 19.8635 28.9571 19.9878C28.8974 20.1121 28.8664 20.2483 28.8664 20.3861C28.8664 20.524 28.8974 20.6602 28.9571 20.7845C29.0167 20.9088 29.1035 21.0182 29.2111 21.1044L31.762 23.1488H28.8574C28.6132 23.1488 28.379 23.2459 28.2063 23.4186C28.0336 23.5913 27.9365 23.8255 27.9365 24.0697C27.9365 24.314 28.0336 24.5482 28.2063 24.7209C28.379 24.8936 28.6132 24.9906 28.8574 24.9906H34.3828C34.5736 24.9907 34.7596 24.9315 34.9153 24.8213C35.0709 24.711 35.1885 24.5552 35.2518 24.3753C35.3151 24.1953 35.3209 24.0002 35.2685 23.8168C35.2161 23.6334 35.1081 23.4708 34.9593 23.3514L31.2591 20.3861L34.9593 17.4208C35.1081 17.3015 35.2161 17.1389 35.2685 16.9555C35.3209 16.7721 35.3151 16.577 35.2518 16.397C35.1885 16.2171 35.0709 16.0612 34.9153 15.951C34.7596 15.8408 34.5736 15.7816 34.3828 15.7816H30.1356L31.5722 11.4681C31.6276 11.3016 31.6342 11.1227 31.5913 10.9525C31.5483 10.7823 31.4577 10.6279 31.3299 10.5075C31.2022 10.3872 31.0427 10.3058 30.8703 10.273C30.6979 10.2402 30.5197 10.2574 30.3567 10.3225L26.4226 11.9028L24.0688 8.78096Z" fill="white"/>
<path d="M9.76465 19.193C9.76465 17.7374 10.9437 16.5583 12.3993 16.5583H23.9919C25.4475 16.5583 26.6265 17.7374 26.6265 19.193V28.6778C26.6265 29.5407 26.2116 30.3047 25.5727 30.7856V32.3664C25.5727 32.9493 25.1017 33.4202 24.5188 33.4202H23.4649C22.882 33.4202 22.4111 32.9493 22.4111 32.3664V31.3125H13.9801V32.3664C13.9801 32.9493 13.5092 33.4202 12.9263 33.4202H11.8724C11.2895 33.4202 10.8185 32.9493 10.8185 32.3664V30.7856C10.1796 30.3047 9.76465 29.5407 9.76465 28.6778V19.193ZM14.0427 21.5708L13.4532 23.9354H22.938L22.3485 21.5708C22.2299 21.1032 21.8084 20.7738 21.3243 20.7738H15.0669C14.5828 20.7738 14.1613 21.1032 14.046 21.5708H14.0427ZM13.9801 27.097C13.9801 26.8175 13.8691 26.5495 13.6714 26.3518C13.4738 26.1542 13.2058 26.0432 12.9263 26.0432C12.6467 26.0432 12.3787 26.1542 12.1811 26.3518C11.9834 26.5495 11.8724 26.8175 11.8724 27.097C11.8724 27.3765 11.9834 27.6446 12.1811 27.8422C12.3787 28.0399 12.6467 28.1509 12.9263 28.1509C13.2058 28.1509 13.4738 28.0399 13.6714 27.8422C13.8691 27.6446 13.9801 27.3765 13.9801 27.097ZM23.4649 28.1509C23.7444 28.1509 24.0125 28.0399 24.2101 27.8422C24.4078 27.6446 24.5188 27.3765 24.5188 27.097C24.5188 26.8175 24.4078 26.5495 24.2101 26.3518C24.0125 26.1542 23.7444 26.0432 23.4649 26.0432C23.1854 26.0432 22.9174 26.1542 22.7197 26.3518C22.5221 26.5495 22.4111 26.8175 22.4111 27.097C22.4111 27.3765 22.5221 27.6446 22.7197 27.8422C22.9174 28.0399 23.1854 28.1509 23.4649 28.1509Z" fill="white"/>
</svg>
