<svg width="32" height="32" viewBox="0 0 32 32" fill="none" xmlns="http://www.w3.org/2000/svg">
<rect width="32" height="32" rx="16" fill="#F3F5F7"/>
<path d="M21.3753 11.6461C20.5297 10.5476 19.3822 9.7194 18.0733 9.26282C16.7644 8.80624 15.3508 8.74107 14.0054 9.07529C12.66 9.40951 11.4412 10.1286 10.4981 11.1447C9.55506 12.1607 8.92856 13.4296 8.69531 14.7961M21.7253 7.99609V11.9961H17.7253M10.0733 20.3461C10.9187 21.445 12.0661 22.2736 13.3752 22.7305C14.6842 23.1873 16.098 23.2526 17.4436 22.9183C18.7891 22.5841 20.0081 21.8648 20.9511 20.8484C21.8942 19.8321 22.5205 18.5629 22.7533 17.1961M9.72431 23.9961V19.9961H13.7243" stroke="#5A5C63" stroke-width="2" stroke-linecap="round" stroke-linejoin="round"/>
</svg>
