<svg width="20" height="20" viewBox="0 0 20 20" fill="none" xmlns="http://www.w3.org/2000/svg">
<path d="M16.0851 5.75651L10.3256 2.86592C10.1232 2.76475 9.87751 2.76475 9.67517 2.86592L3.91566 5.75651C3.69164 5.86491 3.54711 6.08171 3.5182 6.32741C3.51097 6.4069 2.82446 14.1103 9.69685 17.1744C9.78976 17.2172 9.89084 17.2393 9.99314 17.2393C10.0954 17.2393 10.1965 17.2172 10.2894 17.1744C17.1618 14.1031 16.4825 6.39967 16.4681 6.32741C16.4565 6.20609 16.4139 6.08981 16.3443 5.9898C16.2746 5.88979 16.1804 5.80944 16.0706 5.75651H16.0851ZM12.891 10.7356H10.723V12.9035H9.27771V10.7356H7.10977V9.29027H9.27771V7.12232H10.723V9.29027H12.891V10.7356Z" fill="#009632"/>
</svg>
