<svg width="24" height="24" viewBox="0 0 24 24" fill="none" xmlns="http://www.w3.org/2000/svg">
<path d="M12.8726 11.4696L10.2789 14.0633M18.309 5.44443C18.3911 5.41612 18.4794 5.41146 18.564 5.43099C18.6485 5.45051 18.7259 5.49343 18.7872 5.55485C18.8485 5.61626 18.8914 5.69368 18.9108 5.77827C18.9302 5.86286 18.9254 5.95121 18.8969 6.0332L13.7752 20.6704C13.7446 20.7579 13.6883 20.8342 13.6138 20.8893C13.5393 20.9445 13.4499 20.9759 13.3573 20.9797C13.2646 20.9834 13.173 20.9592 13.0943 20.9102C13.0156 20.8612 12.9534 20.7897 12.9158 20.705L10.1328 14.4438C10.086 14.3396 10.0026 14.2563 9.89848 14.2095L3.63725 11.4255C3.55278 11.3878 3.48156 11.3256 3.43278 11.247C3.38401 11.1684 3.35993 11.077 3.36366 10.9846C3.36738 10.8921 3.39874 10.8029 3.45367 10.7285C3.50861 10.6541 3.5846 10.5978 3.67183 10.567L18.309 5.44443Z" stroke="#F7FBFF" stroke-width="1.29686" stroke-linecap="round" stroke-linejoin="round"/>
</svg>
