<svg width="62" height="59" viewBox="0 0 62 59" fill="none" xmlns="http://www.w3.org/2000/svg">
<rect width="62" height="58.0508" rx="29.0254" fill="#EAF3FF"/>
<path d="M32.082 27.8196L27.8996 32.002M40.8484 18.1038C40.9807 18.0581 41.1231 18.0506 41.2595 18.0821C41.3959 18.1136 41.5206 18.1828 41.6195 18.2818C41.7184 18.3809 41.7874 18.5057 41.8187 18.6421C41.85 18.7785 41.8422 18.921 41.7964 19.0532L33.5375 42.656C33.4881 42.7971 33.3974 42.9201 33.2772 43.009C33.1571 43.0979 33.0129 43.1487 32.8636 43.1547C32.7142 43.1607 32.5665 43.1217 32.4395 43.0427C32.3126 42.9637 32.2123 42.8484 32.1517 42.7118L27.664 32.6154C27.5885 32.4475 27.4541 32.3131 27.2862 32.2376L17.1898 27.7485C17.0536 27.6876 16.9388 27.5874 16.8601 27.4606C16.7815 27.3338 16.7426 27.1864 16.7487 27.0374C16.7547 26.8883 16.8052 26.7445 16.8938 26.6245C16.9824 26.5044 17.1049 26.4137 17.2456 26.3641L40.8484 18.1038Z" stroke="#3385FF" stroke-width="2.09121" stroke-linecap="round" stroke-linejoin="round"/>
</svg>
