<svg width="24" height="24" viewBox="0 0 24 24" fill="none" xmlns="http://www.w3.org/2000/svg">
<path d="M19.7122 14.7002C19.9869 14.7002 20.2242 14.8002 20.4242 15.0002L21.9992 16.6002C22.1992 16.8002 22.2992 17.0335 22.2992 17.3002C22.2992 17.5669 22.1992 17.8002 21.9992 18.0002C21.7992 18.2002 21.5659 18.3002 21.2992 18.3002C21.0326 18.3002 20.7992 18.2002 20.5992 18.0002L18.9992 16.4252C18.7992 16.2252 18.6992 15.9879 18.6992 15.7132C18.6992 15.4385 18.7992 15.2009 18.9992 15.0002C19.1992 14.7995 19.4369 14.6995 19.7122 14.7002ZM20.2992 3.7132C20.2992 3.98787 20.1992 4.2252 19.9992 4.4252L18.4242 6.0002C18.2242 6.2002 17.9869 6.3002 17.7122 6.3002C17.4376 6.3002 17.1999 6.2002 16.9992 6.0002C16.7986 5.8002 16.6986 5.56287 16.6992 5.2882C16.6999 5.01353 16.7999 4.77587 16.9992 4.5752L18.5992 3.0002C18.7992 2.8002 19.0326 2.7002 19.2992 2.7002C19.5659 2.7002 19.7992 2.8002 19.9992 3.0002C20.1992 3.2002 20.2992 3.43753 20.2992 3.7122M4.71222 2.7002C4.98689 2.7002 5.22422 2.8002 5.42422 3.0002L6.99922 4.6002C7.19922 4.8002 7.29922 5.03353 7.29922 5.3002C7.29922 5.56687 7.19922 5.8002 6.99922 6.0002C6.79922 6.2002 6.56189 6.3002 6.28722 6.3002C6.01256 6.3002 5.77489 6.2002 5.57422 6.0002L3.99922 4.4252C3.79922 4.2252 3.69922 3.98787 3.69922 3.7132C3.69922 3.43853 3.79922 3.20087 3.99922 3.0002C4.19922 2.79953 4.43689 2.69953 4.71222 2.7002ZM5.29922 15.7132C5.29922 15.9879 5.19922 16.2252 4.99922 16.4252L3.42422 18.0002C3.22422 18.2002 2.98689 18.3002 2.71222 18.3002C2.43756 18.3002 2.19989 18.2002 1.99922 18.0002C1.79856 17.8002 1.69856 17.5629 1.69922 17.2882C1.69989 17.0135 1.79989 16.7759 1.99922 16.5752L3.59922 15.0002C3.79922 14.8002 4.03256 14.7002 4.29922 14.7002C4.56589 14.7002 4.79922 14.8002 4.99922 15.0002C5.19922 15.2002 5.29922 15.4379 5.29922 15.7132ZM11.9992 17.2752L7.84922 19.7752C7.66589 19.8919 7.47422 19.9419 7.27422 19.9252C7.07422 19.9085 6.89922 19.8419 6.74922 19.7252C6.59922 19.6085 6.48256 19.4629 6.39922 19.2882C6.31589 19.1135 6.29922 18.9175 6.34922 18.7002L7.44922 13.9752L3.77422 10.8002C3.60756 10.6502 3.50356 10.4792 3.46222 10.2872C3.42089 10.0952 3.43322 9.90787 3.49922 9.7252C3.56522 9.54253 3.66522 9.39253 3.79922 9.2752C3.93322 9.15786 4.11656 9.08287 4.34922 9.0502L9.19922 8.6252L11.0742 4.1752C11.1576 3.9752 11.2869 3.8252 11.4622 3.7252C11.6376 3.6252 11.8166 3.5752 11.9992 3.5752C12.1819 3.5752 12.3609 3.6252 12.5362 3.7252C12.7116 3.8252 12.8409 3.9752 12.9242 4.1752L14.7992 8.6252L19.6492 9.0502C19.8826 9.08353 20.0659 9.15853 20.1992 9.2752C20.3326 9.39186 20.4326 9.54187 20.4992 9.7252C20.5659 9.90853 20.5786 10.0962 20.5372 10.2882C20.4959 10.4802 20.3916 10.6509 20.2242 10.8002L16.5492 13.9752L17.6492 18.7002C17.6992 18.9169 17.6826 19.1129 17.5992 19.2882C17.5159 19.4635 17.3992 19.6092 17.2492 19.7252C17.0992 19.8412 16.9242 19.9079 16.7242 19.9252C16.5242 19.9425 16.3326 19.8925 16.1492 19.7752L11.9992 17.2752Z" fill="#003E9C"/>
</svg>
