<svg width="58" height="58" viewBox="0 0 58 58" fill="none" xmlns="http://www.w3.org/2000/svg">
<circle cx="28.6899" cy="28.6899" r="28.6899" fill="#EAF7FF"/>
<path d="M40.4843 32.3968C40.2131 32.2961 39.9114 32.4329 39.8083 32.7032L39.6475 33.1248C39.5436 33.3974 39.6808 33.7026 39.9538 33.8058L41.7086 34.469C41.99 34.5753 42.1263 34.8957 41.9966 35.1671C40.674 37.9326 38.5171 40.183 35.8434 41.6633C35.5799 41.8092 35.2514 41.6923 35.1284 41.4174L34.382 39.7497C34.2623 39.4822 33.9475 39.3637 33.6811 39.4858L33.2694 39.6745C33.0072 39.7947 32.8903 40.1034 33.007 40.3671L33.7639 42.0774C33.8852 42.3513 33.7543 42.672 33.4719 42.7722C31.9495 43.3119 30.312 43.625 28.6025 43.625C27.2244 43.625 25.8917 43.3739 24.6244 43.0314C24.3298 42.9517 24.1709 42.6353 24.2763 42.3488L24.9133 40.6179C25.0128 40.3475 24.8767 40.0472 24.6077 39.9438L24.191 39.7835C23.9176 39.6784 23.6109 39.8163 23.5081 40.0906L22.8487 41.8503C22.7427 42.1331 22.4207 42.27 22.1487 42.1387C19.3952 40.8097 17.1549 38.643 15.6816 35.9574C15.5374 35.6946 15.6537 35.3679 15.927 35.2446L17.5913 34.4934C17.8572 34.3734 17.9751 34.0603 17.8543 33.7947L17.6652 33.3786C17.5453 33.1149 17.235 32.9973 16.9704 33.1154L15.276 33.8716C15.0013 33.9942 14.679 33.8627 14.5792 33.5788C14.0421 32.0504 13.7305 30.4065 13.7305 28.6905C13.7305 27.3068 13.9804 25.9688 14.3214 24.6964C14.4007 24.4006 14.7185 24.2411 15.0056 24.3476L16.7207 24.9841C16.9919 25.0848 17.2936 24.948 17.3967 24.6777L17.5575 24.2561C17.6615 23.9835 17.5242 23.6783 17.2513 23.5751L15.4964 22.9119C15.215 22.8056 15.0787 22.4852 15.2085 22.2138C16.5311 19.4483 18.6879 17.1979 21.3617 15.7176C21.6252 15.5717 21.9536 15.6886 22.0767 15.9635L22.8231 17.6312C22.9428 17.8987 23.2576 18.0172 23.524 17.8951L23.9356 17.7064C24.1979 17.5862 24.3148 17.2775 24.198 17.0138L23.4411 15.3036C23.3199 15.0296 23.4507 14.7089 23.7331 14.6088C25.2556 14.069 26.8931 13.7559 28.6025 13.7559C29.9806 13.7559 31.3133 14.007 32.5806 14.3496C32.8753 14.4292 33.0342 14.7457 32.9288 15.0321L32.2918 16.763C32.1923 17.0334 32.3283 17.3337 32.5973 17.4371L33.014 17.5974C33.2874 17.7025 33.5941 17.5646 33.6969 17.2903L34.3564 15.5307C34.4624 15.2479 34.7843 15.1109 35.0563 15.2422C37.8098 16.5712 40.0501 18.7379 41.5234 21.4235C41.6676 21.6863 41.5514 22.013 41.2781 22.1363L39.6138 22.8875C39.3479 23.0075 39.23 23.3206 39.3507 23.5862L39.5399 24.0023C39.6598 24.2661 39.9701 24.3836 40.2347 24.2655L41.929 23.5093C42.2037 23.3867 42.5261 23.5182 42.6258 23.8021C43.163 25.3305 43.4746 26.9744 43.4746 28.6905C43.4746 30.0741 43.2246 31.4121 42.8836 32.6845C42.8043 32.9803 42.4865 33.1398 42.1994 33.0333L40.4843 32.3968Z" fill="#005EAD"/>
<circle cx="28.6016" cy="28.6895" r="6.86133" fill="#EAF7FF"/>
</svg>
