<svg width="12" height="12" viewBox="0 0 12 12" fill="none" xmlns="http://www.w3.org/2000/svg">
<path d="M6.40198 10.2339C6.19635 10.2339 6.01643 10.1727 5.86221 10.0504C5.70799 9.92805 5.6116 9.76432 5.57305 9.55921C5.43168 8.74956 5.06875 8.062 4.48426 7.49653C3.89977 6.93106 3.20244 6.57764 2.39227 6.43627C2.1995 6.41057 2.04862 6.31752 1.93964 6.15713C1.83066 5.99675 1.77591 5.81348 1.77539 5.60734C1.77539 5.38886 1.84608 5.20586 1.98745 5.05832C2.12881 4.91078 2.29588 4.84961 2.48866 4.8748C3.69671 5.02902 4.72818 5.53666 5.58307 6.39772C6.43796 7.25877 6.94868 8.29333 7.11524 9.50138C7.14094 9.70701 7.08311 9.8805 6.94174 10.0219C6.80038 10.1632 6.62045 10.2339 6.40198 10.2339ZM9.48636 10.2339C9.26789 10.2339 9.08488 10.1632 8.93734 10.0219C8.78981 9.8805 8.70293 9.70058 8.67671 9.4821C8.49679 7.8371 7.82542 6.4427 6.66261 5.2989C5.49979 4.15511 4.09562 3.49968 2.4501 3.3326C2.24448 3.3069 2.08049 3.21694 1.95814 3.06272C1.8358 2.9085 1.77488 2.72858 1.77539 2.52295C1.77539 2.30448 1.84299 2.11813 1.97819 1.96391C2.11339 1.80969 2.27712 1.74543 2.46938 1.77113C4.53849 1.9382 6.29916 2.74143 7.7514 4.18081C9.20363 5.62019 10.0261 7.37444 10.2189 9.44355C10.2446 9.66203 10.1834 9.84838 10.0354 10.0026C9.88733 10.1568 9.70433 10.2339 9.48636 10.2339ZM2.73927 10.2339C2.46938 10.2339 2.24114 10.1406 2.05453 9.95401C1.86793 9.76741 1.77488 9.53942 1.77539 9.27005C1.77591 9.00068 1.86921 8.77244 2.0553 8.58532C2.24139 8.3982 2.46938 8.30515 2.73927 8.30618C3.00915 8.30721 3.23739 8.40051 3.424 8.58609C3.6106 8.77167 3.70365 8.99965 3.70314 9.27005C3.70262 9.54045 3.60932 9.76869 3.42323 9.95479C3.23714 10.1409 3.00915 10.2339 2.73927 10.2339Z" fill="#00BF40"/>
</svg>
