<svg width="12" height="12" viewBox="0 0 12 12" fill="none" xmlns="http://www.w3.org/2000/svg">
<path d="M2.73926 10.2339C2.46938 10.2339 2.24114 10.1406 2.05453 9.95399C1.86792 9.76739 1.77488 9.5394 1.77539 9.27003C1.77591 9.00066 1.86921 8.77242 2.0553 8.5853C2.24139 8.39818 2.46938 8.30513 2.73926 8.30616C3.00915 8.30719 3.23739 8.40049 3.424 8.58607C3.6106 8.77165 3.70365 8.99963 3.70314 9.27003C3.70262 9.54043 3.60932 9.76868 3.42323 9.95477C3.23714 10.1409 3.00915 10.2339 2.73926 10.2339Z" fill="#FF8C00"/>
<path d="M9.48636 10.2339C9.26789 10.2339 9.08488 10.1632 8.93734 10.0219C8.78981 9.8805 8.70293 9.70058 8.67671 9.4821C8.49679 7.8371 7.82542 6.4427 6.66261 5.2989C5.49979 4.15511 4.09562 3.49968 2.4501 3.3326C2.24448 3.3069 2.08049 3.21694 1.95814 3.06272C1.8358 2.9085 1.77488 2.72858 1.77539 2.52295C1.77539 2.30448 1.84299 2.11813 1.97819 1.96391C2.11339 1.80969 2.27712 1.74543 2.46938 1.77113C4.53849 1.9382 6.29916 2.74143 7.7514 4.18081C9.20363 5.62019 10.0261 7.37444 10.2189 9.44355C10.2446 9.66203 10.1834 9.84837 10.0354 10.0026C9.88733 10.1568 9.70433 10.2339 9.48636 10.2339Z" fill="#C2C4C8"/>
<path d="M6.40197 10.2339C6.19635 10.2339 6.01642 10.1727 5.86221 10.0504C5.70799 9.92803 5.6116 9.7643 5.57304 9.55919C5.43168 8.74954 5.06875 8.06197 4.48425 7.4965C3.89976 6.93103 3.20243 6.57761 2.39227 6.43624C2.19949 6.41054 2.04862 6.3175 1.93963 6.15711C1.83065 5.99672 1.7759 5.81345 1.77539 5.60731C1.77539 5.38884 1.84607 5.20583 1.98744 5.05829C2.12881 4.91076 2.29588 4.84958 2.48866 4.87477C3.69671 5.02899 4.72818 5.53663 5.58307 6.39769C6.43796 7.25875 6.94868 8.2933 7.11524 9.50135C7.14094 9.70698 7.08311 9.88048 6.94174 10.0218C6.80037 10.1632 6.62045 10.2339 6.40197 10.2339Z" fill="#FF8C00"/>
</svg>
